<svg xmlns="http://www.w3.org/2000/svg" xmlns:xlink="http://www.w3.org/1999/xlink" width="600" height="400" viewBox="0 0 2400 1600">
<defs>
  <clipPath id="clip520">
    <rect x="0" y="0" width="2400" height="1600"></rect>
  </clipPath>
</defs>
<path clip-path="url(#clip520)" d="M0 1600 L2400 1600 L2400 0 L0 0  Z" fill="#ffffff" fill-rule="evenodd" fill-opacity="1"></path>
<defs>
  <clipPath id="clip521">
    <rect x="480" y="0" width="1681" height="1600"></rect>
  </clipPath>
</defs>
<path clip-path="url(#clip520)" d="M268.957 1423.18 L2352.76 1423.18 L2352.76 123.472 L268.957 123.472  Z" fill="#ffffff" fill-rule="evenodd" fill-opacity="1"></path>
<defs>
  <clipPath id="clip522">
    <rect x="268" y="123" width="2085" height="1301"></rect>
  </clipPath>
</defs>
<polyline clip-path="url(#clip522)" style="stroke:#000000; stroke-linecap:round; stroke-linejoin:round; stroke-width:2; stroke-opacity:0.1; fill:none" points="318.054,1423.18 318.054,123.472 "></polyline>
<polyline clip-path="url(#clip522)" style="stroke:#000000; stroke-linecap:round; stroke-linejoin:round; stroke-width:2; stroke-opacity:0.1; fill:none" points="811.986,1423.18 811.986,123.472 "></polyline>
<polyline clip-path="url(#clip522)" style="stroke:#000000; stroke-linecap:round; stroke-linejoin:round; stroke-width:2; stroke-opacity:0.1; fill:none" points="1305.92,1423.18 1305.92,123.472 "></polyline>
<polyline clip-path="url(#clip522)" style="stroke:#000000; stroke-linecap:round; stroke-linejoin:round; stroke-width:2; stroke-opacity:0.1; fill:none" points="1799.85,1423.18 1799.85,123.472 "></polyline>
<polyline clip-path="url(#clip522)" style="stroke:#000000; stroke-linecap:round; stroke-linejoin:round; stroke-width:2; stroke-opacity:0.1; fill:none" points="2293.78,1423.18 2293.78,123.472 "></polyline>
<polyline clip-path="url(#clip522)" style="stroke:#000000; stroke-linecap:round; stroke-linejoin:round; stroke-width:2; stroke-opacity:0.1; fill:none" points="268.957,1410.17 2352.76,1410.17 "></polyline>
<polyline clip-path="url(#clip522)" style="stroke:#000000; stroke-linecap:round; stroke-linejoin:round; stroke-width:2; stroke-opacity:0.1; fill:none" points="268.957,827.051 2352.76,827.051 "></polyline>
<polyline clip-path="url(#clip522)" style="stroke:#000000; stroke-linecap:round; stroke-linejoin:round; stroke-width:2; stroke-opacity:0.1; fill:none" points="268.957,243.934 2352.76,243.934 "></polyline>
<polyline clip-path="url(#clip520)" style="stroke:#000000; stroke-linecap:round; stroke-linejoin:round; stroke-width:4; stroke-opacity:1; fill:none" points="268.957,1423.18 2352.76,1423.18 "></polyline>
<polyline clip-path="url(#clip520)" style="stroke:#000000; stroke-linecap:round; stroke-linejoin:round; stroke-width:4; stroke-opacity:1; fill:none" points="318.054,1423.18 318.054,1404.28 "></polyline>
<polyline clip-path="url(#clip520)" style="stroke:#000000; stroke-linecap:round; stroke-linejoin:round; stroke-width:4; stroke-opacity:1; fill:none" points="811.986,1423.18 811.986,1404.28 "></polyline>
<polyline clip-path="url(#clip520)" style="stroke:#000000; stroke-linecap:round; stroke-linejoin:round; stroke-width:4; stroke-opacity:1; fill:none" points="1305.92,1423.18 1305.92,1404.28 "></polyline>
<polyline clip-path="url(#clip520)" style="stroke:#000000; stroke-linecap:round; stroke-linejoin:round; stroke-width:4; stroke-opacity:1; fill:none" points="1799.85,1423.18 1799.85,1404.28 "></polyline>
<polyline clip-path="url(#clip520)" style="stroke:#000000; stroke-linecap:round; stroke-linejoin:round; stroke-width:4; stroke-opacity:1; fill:none" points="2293.78,1423.18 2293.78,1404.28 "></polyline>
<path clip-path="url(#clip520)" d="M318.054 1454.1 Q314.443 1454.1 312.614 1457.66 Q310.809 1461.2 310.809 1468.33 Q310.809 1475.44 312.614 1479.01 Q314.443 1482.55 318.054 1482.55 Q321.688 1482.55 323.494 1479.01 Q325.323 1475.44 325.323 1468.33 Q325.323 1461.2 323.494 1457.66 Q321.688 1454.1 318.054 1454.1 M318.054 1450.39 Q323.864 1450.39 326.92 1455 Q329.999 1459.58 329.999 1468.33 Q329.999 1477.06 326.92 1481.67 Q323.864 1486.25 318.054 1486.25 Q312.244 1486.25 309.165 1481.67 Q306.11 1477.06 306.11 1468.33 Q306.11 1459.58 309.165 1455 Q312.244 1450.39 318.054 1450.39 Z" fill="#000000" fill-rule="nonzero" fill-opacity="1"></path><path clip-path="url(#clip520)" d="M786.685 1451.02 L805.041 1451.02 L805.041 1454.96 L790.967 1454.96 L790.967 1463.43 Q791.986 1463.08 793.004 1462.92 Q794.023 1462.73 795.041 1462.73 Q800.828 1462.73 804.208 1465.9 Q807.588 1469.08 807.588 1474.49 Q807.588 1480.07 804.115 1483.17 Q800.643 1486.25 794.324 1486.25 Q792.148 1486.25 789.879 1485.88 Q787.634 1485.51 785.227 1484.77 L785.227 1480.07 Q787.31 1481.2 789.532 1481.76 Q791.754 1482.32 794.231 1482.32 Q798.236 1482.32 800.574 1480.21 Q802.912 1478.1 802.912 1474.49 Q802.912 1470.88 800.574 1468.77 Q798.236 1466.67 794.231 1466.67 Q792.356 1466.67 790.481 1467.08 Q788.629 1467.5 786.685 1468.38 L786.685 1451.02 Z" fill="#000000" fill-rule="nonzero" fill-opacity="1"></path><path clip-path="url(#clip520)" d="M826.801 1454.1 Q823.189 1454.1 821.361 1457.66 Q819.555 1461.2 819.555 1468.33 Q819.555 1475.44 821.361 1479.01 Q823.189 1482.55 826.801 1482.55 Q830.435 1482.55 832.24 1479.01 Q834.069 1475.44 834.069 1468.33 Q834.069 1461.2 832.24 1457.66 Q830.435 1454.1 826.801 1454.1 M826.801 1450.39 Q832.611 1450.39 835.666 1455 Q838.745 1459.58 838.745 1468.33 Q838.745 1477.06 835.666 1481.67 Q832.611 1486.25 826.801 1486.25 Q820.99 1486.25 817.912 1481.67 Q814.856 1477.06 814.856 1468.33 Q814.856 1459.58 817.912 1455 Q820.99 1450.39 826.801 1450.39 Z" fill="#000000" fill-rule="nonzero" fill-opacity="1"></path><path clip-path="url(#clip520)" d="M1265.52 1481.64 L1273.16 1481.64 L1273.16 1455.28 L1264.85 1456.95 L1264.85 1452.69 L1273.12 1451.02 L1277.79 1451.02 L1277.79 1481.64 L1285.43 1481.64 L1285.43 1485.58 L1265.52 1485.58 L1265.52 1481.64 Z" fill="#000000" fill-rule="nonzero" fill-opacity="1"></path><path clip-path="url(#clip520)" d="M1304.88 1454.1 Q1301.26 1454.1 1299.44 1457.66 Q1297.63 1461.2 1297.63 1468.33 Q1297.63 1475.44 1299.44 1479.01 Q1301.26 1482.55 1304.88 1482.55 Q1308.51 1482.55 1310.32 1479.01 Q1312.14 1475.44 1312.14 1468.33 Q1312.14 1461.2 1310.32 1457.66 Q1308.51 1454.1 1304.88 1454.1 M1304.88 1450.39 Q1310.69 1450.39 1313.74 1455 Q1316.82 1459.58 1316.82 1468.33 Q1316.82 1477.06 1313.74 1481.67 Q1310.69 1486.25 1304.88 1486.25 Q1299.07 1486.25 1295.99 1481.67 Q1292.93 1477.06 1292.93 1468.33 Q1292.93 1459.58 1295.99 1455 Q1299.07 1450.39 1304.88 1450.39 Z" fill="#000000" fill-rule="nonzero" fill-opacity="1"></path><path clip-path="url(#clip520)" d="M1335.04 1454.1 Q1331.43 1454.1 1329.6 1457.66 Q1327.79 1461.2 1327.79 1468.33 Q1327.79 1475.44 1329.6 1479.01 Q1331.43 1482.55 1335.04 1482.55 Q1338.67 1482.55 1340.48 1479.01 Q1342.31 1475.44 1342.31 1468.33 Q1342.31 1461.2 1340.48 1457.66 Q1338.67 1454.1 1335.04 1454.1 M1335.04 1450.39 Q1340.85 1450.39 1343.9 1455 Q1346.98 1459.58 1346.98 1468.33 Q1346.98 1477.06 1343.9 1481.67 Q1340.85 1486.25 1335.04 1486.25 Q1329.23 1486.25 1326.15 1481.67 Q1323.09 1477.06 1323.09 1468.33 Q1323.09 1459.58 1326.15 1455 Q1329.23 1450.39 1335.04 1450.39 Z" fill="#000000" fill-rule="nonzero" fill-opacity="1"></path><path clip-path="url(#clip520)" d="M1759.46 1481.64 L1767.09 1481.64 L1767.09 1455.28 L1758.78 1456.95 L1758.78 1452.69 L1767.05 1451.02 L1771.72 1451.02 L1771.72 1481.64 L1779.36 1481.64 L1779.36 1485.58 L1759.46 1485.58 L1759.46 1481.64 Z" fill="#000000" fill-rule="nonzero" fill-opacity="1"></path><path clip-path="url(#clip520)" d="M1788.85 1451.02 L1807.21 1451.02 L1807.21 1454.96 L1793.14 1454.96 L1793.14 1463.43 Q1794.15 1463.08 1795.17 1462.92 Q1796.19 1462.73 1797.21 1462.73 Q1803 1462.73 1806.38 1465.9 Q1809.76 1469.08 1809.76 1474.49 Q1809.76 1480.07 1806.28 1483.17 Q1802.81 1486.25 1796.49 1486.25 Q1794.32 1486.25 1792.05 1485.88 Q1789.8 1485.51 1787.4 1484.77 L1787.4 1480.07 Q1789.48 1481.2 1791.7 1481.76 Q1793.92 1482.32 1796.4 1482.32 Q1800.4 1482.32 1802.74 1480.21 Q1805.08 1478.1 1805.08 1474.49 Q1805.08 1470.88 1802.74 1468.77 Q1800.4 1466.67 1796.4 1466.67 Q1794.52 1466.67 1792.65 1467.08 Q1790.8 1467.5 1788.85 1468.38 L1788.85 1451.02 Z" fill="#000000" fill-rule="nonzero" fill-opacity="1"></path><path clip-path="url(#clip520)" d="M1828.97 1454.1 Q1825.36 1454.1 1823.53 1457.66 Q1821.72 1461.2 1821.72 1468.33 Q1821.72 1475.44 1823.53 1479.01 Q1825.36 1482.55 1828.97 1482.55 Q1832.6 1482.55 1834.41 1479.01 Q1836.24 1475.44 1836.24 1468.33 Q1836.24 1461.2 1834.41 1457.66 Q1832.6 1454.1 1828.97 1454.1 M1828.97 1450.39 Q1834.78 1450.39 1837.83 1455 Q1840.91 1459.58 1840.91 1468.33 Q1840.91 1477.06 1837.83 1481.67 Q1834.78 1486.25 1828.97 1486.25 Q1823.16 1486.25 1820.08 1481.67 Q1817.02 1477.06 1817.02 1468.33 Q1817.02 1459.58 1820.08 1455 Q1823.16 1450.39 1828.97 1450.39 Z" fill="#000000" fill-rule="nonzero" fill-opacity="1"></path><path clip-path="url(#clip520)" d="M2257.47 1481.64 L2273.79 1481.64 L2273.79 1485.58 L2251.85 1485.58 L2251.85 1481.64 Q2254.51 1478.89 2259.09 1474.26 Q2263.7 1469.61 2264.88 1468.27 Q2267.13 1465.74 2268.01 1464.01 Q2268.91 1462.25 2268.91 1460.56 Q2268.91 1457.8 2266.96 1456.07 Q2265.04 1454.33 2261.94 1454.33 Q2259.74 1454.33 2257.29 1455.09 Q2254.86 1455.86 2252.08 1457.41 L2252.08 1452.69 Q2254.9 1451.55 2257.36 1450.97 Q2259.81 1450.39 2261.85 1450.39 Q2267.22 1450.39 2270.41 1453.08 Q2273.61 1455.77 2273.61 1460.26 Q2273.61 1462.39 2272.8 1464.31 Q2272.01 1466.2 2269.9 1468.8 Q2269.32 1469.47 2266.22 1472.69 Q2263.12 1475.88 2257.47 1481.64 Z" fill="#000000" fill-rule="nonzero" fill-opacity="1"></path><path clip-path="url(#clip520)" d="M2293.61 1454.1 Q2290 1454.1 2288.17 1457.66 Q2286.36 1461.2 2286.36 1468.33 Q2286.36 1475.44 2288.17 1479.01 Q2290 1482.55 2293.61 1482.55 Q2297.24 1482.55 2299.05 1479.01 Q2300.88 1475.44 2300.88 1468.33 Q2300.88 1461.2 2299.05 1457.66 Q2297.24 1454.1 2293.61 1454.1 M2293.61 1450.39 Q2299.42 1450.39 2302.47 1455 Q2305.55 1459.58 2305.55 1468.33 Q2305.55 1477.06 2302.47 1481.67 Q2299.42 1486.25 2293.61 1486.25 Q2287.8 1486.25 2284.72 1481.67 Q2281.66 1477.06 2281.66 1468.33 Q2281.66 1459.58 2284.72 1455 Q2287.8 1450.39 2293.61 1450.39 Z" fill="#000000" fill-rule="nonzero" fill-opacity="1"></path><path clip-path="url(#clip520)" d="M2323.77 1454.1 Q2320.16 1454.1 2318.33 1457.66 Q2316.52 1461.2 2316.52 1468.33 Q2316.52 1475.44 2318.33 1479.01 Q2320.16 1482.55 2323.77 1482.55 Q2327.4 1482.55 2329.21 1479.01 Q2331.04 1475.44 2331.04 1468.33 Q2331.04 1461.2 2329.21 1457.66 Q2327.4 1454.1 2323.77 1454.1 M2323.77 1450.39 Q2329.58 1450.39 2332.63 1455 Q2335.71 1459.58 2335.71 1468.33 Q2335.71 1477.06 2332.63 1481.67 Q2329.58 1486.25 2323.77 1486.25 Q2317.96 1486.25 2314.88 1481.67 Q2311.82 1477.06 2311.82 1468.33 Q2311.82 1459.58 2314.88 1455 Q2317.96 1450.39 2323.77 1450.39 Z" fill="#000000" fill-rule="nonzero" fill-opacity="1"></path><path clip-path="url(#clip520)" d="M1226.18 1537.81 L1226.18 1518.52 L1232.03 1518.52 L1232.03 1568.04 L1226.18 1568.04 L1226.18 1562.7 Q1224.33 1565.88 1221.5 1567.44 Q1218.7 1568.97 1214.75 1568.97 Q1208.29 1568.97 1204.22 1563.81 Q1200.17 1558.65 1200.17 1550.25 Q1200.17 1541.85 1204.22 1536.69 Q1208.29 1531.54 1214.75 1531.54 Q1218.7 1531.54 1221.5 1533.1 Q1224.33 1534.62 1226.18 1537.81 M1206.22 1550.25 Q1206.22 1556.71 1208.86 1560.4 Q1211.54 1564.07 1216.18 1564.07 Q1220.83 1564.07 1223.5 1560.4 Q1226.18 1556.71 1226.18 1550.25 Q1226.18 1543.79 1223.5 1540.13 Q1220.83 1536.44 1216.18 1536.44 Q1211.54 1536.44 1208.86 1540.13 Q1206.22 1543.79 1206.22 1550.25 Z" fill="#000000" fill-rule="nonzero" fill-opacity="1"></path><path clip-path="url(#clip520)" d="M1274.59 1548.76 L1274.59 1551.62 L1247.66 1551.62 Q1248.04 1557.67 1251.29 1560.85 Q1254.57 1564 1260.39 1564 Q1263.77 1564 1266.92 1563.17 Q1270.1 1562.35 1273.22 1560.69 L1273.22 1566.23 Q1270.07 1567.57 1266.76 1568.27 Q1263.45 1568.97 1260.04 1568.97 Q1251.51 1568.97 1246.52 1564 Q1241.55 1559.04 1241.55 1550.57 Q1241.55 1541.82 1246.26 1536.69 Q1251 1531.54 1259.02 1531.54 Q1266.22 1531.54 1270.39 1536.18 Q1274.59 1540.8 1274.59 1548.76 M1268.73 1547.04 Q1268.67 1542.23 1266.03 1539.37 Q1263.42 1536.5 1259.09 1536.5 Q1254.19 1536.5 1251.23 1539.27 Q1248.3 1542.04 1247.85 1547.07 L1268.73 1547.04 Z" fill="#000000" fill-rule="nonzero" fill-opacity="1"></path><path clip-path="url(#clip520)" d="M1307.66 1549.81 Q1307.66 1543.44 1305.02 1539.94 Q1302.41 1536.44 1297.66 1536.44 Q1292.95 1536.44 1290.31 1539.94 Q1287.7 1543.44 1287.7 1549.81 Q1287.7 1556.14 1290.31 1559.64 Q1292.95 1563.14 1297.66 1563.14 Q1302.41 1563.14 1305.02 1559.64 Q1307.66 1556.14 1307.66 1549.81 M1313.51 1563.62 Q1313.51 1572.72 1309.47 1577.15 Q1305.43 1581.6 1297.09 1581.6 Q1294 1581.6 1291.27 1581.13 Q1288.53 1580.68 1285.95 1579.72 L1285.95 1574.03 Q1288.53 1575.43 1291.04 1576.1 Q1293.56 1576.76 1296.17 1576.76 Q1301.93 1576.76 1304.79 1573.74 Q1307.66 1570.75 1307.66 1564.67 L1307.66 1561.77 Q1305.84 1564.92 1303.01 1566.48 Q1300.18 1568.04 1296.23 1568.04 Q1289.67 1568.04 1285.66 1563.05 Q1281.65 1558.05 1281.65 1549.81 Q1281.65 1541.53 1285.66 1536.53 Q1289.67 1531.54 1296.23 1531.54 Q1300.18 1531.54 1303.01 1533.1 Q1305.84 1534.66 1307.66 1537.81 L1307.66 1532.4 L1313.51 1532.4 L1313.51 1563.62 Z" fill="#000000" fill-rule="nonzero" fill-opacity="1"></path><path clip-path="url(#clip520)" d="M1346.23 1537.87 Q1345.25 1537.3 1344.07 1537.04 Q1342.92 1536.76 1341.52 1536.76 Q1336.56 1536.76 1333.88 1540 Q1331.24 1543.22 1331.24 1549.27 L1331.24 1568.04 L1325.35 1568.04 L1325.35 1532.4 L1331.24 1532.4 L1331.24 1537.93 Q1333.09 1534.69 1336.05 1533.13 Q1339.01 1531.54 1343.24 1531.54 Q1343.85 1531.54 1344.58 1531.63 Q1345.31 1531.7 1346.2 1531.85 L1346.23 1537.87 Z" fill="#000000" fill-rule="nonzero" fill-opacity="1"></path><path clip-path="url(#clip520)" d="M1381.44 1548.76 L1381.44 1551.62 L1354.51 1551.62 Q1354.89 1557.67 1358.14 1560.85 Q1361.42 1564 1367.24 1564 Q1370.61 1564 1373.77 1563.17 Q1376.95 1562.35 1380.07 1560.69 L1380.07 1566.23 Q1376.92 1567.57 1373.61 1568.27 Q1370.3 1568.97 1366.89 1568.97 Q1358.36 1568.97 1353.36 1564 Q1348.4 1559.04 1348.4 1550.57 Q1348.4 1541.82 1353.11 1536.69 Q1357.85 1531.54 1365.87 1531.54 Q1373.07 1531.54 1377.24 1536.18 Q1381.44 1540.8 1381.44 1548.76 M1375.58 1547.04 Q1375.52 1542.23 1372.87 1539.37 Q1370.26 1536.5 1365.94 1536.5 Q1361.03 1536.5 1358.07 1539.27 Q1355.15 1542.04 1354.7 1547.07 L1375.58 1547.04 Z" fill="#000000" fill-rule="nonzero" fill-opacity="1"></path><path clip-path="url(#clip520)" d="M1421.54 1548.76 L1421.54 1551.62 L1394.61 1551.62 Q1395 1557.67 1398.24 1560.85 Q1401.52 1564 1407.34 1564 Q1410.72 1564 1413.87 1563.17 Q1417.05 1562.35 1420.17 1560.69 L1420.17 1566.23 Q1417.02 1567.57 1413.71 1568.27 Q1410.4 1568.97 1406.99 1568.97 Q1398.46 1568.97 1393.47 1564 Q1388.5 1559.04 1388.5 1550.57 Q1388.5 1541.82 1393.21 1536.69 Q1397.96 1531.54 1405.98 1531.54 Q1413.17 1531.54 1417.34 1536.18 Q1421.54 1540.8 1421.54 1548.76 M1415.68 1547.04 Q1415.62 1542.23 1412.98 1539.37 Q1410.37 1536.5 1406.04 1536.5 Q1401.14 1536.5 1398.18 1539.27 Q1395.25 1542.04 1394.8 1547.07 L1415.68 1547.04 Z" fill="#000000" fill-rule="nonzero" fill-opacity="1"></path><polyline clip-path="url(#clip520)" style="stroke:#000000; stroke-linecap:round; stroke-linejoin:round; stroke-width:4; stroke-opacity:1; fill:none" points="268.957,1423.18 268.957,123.472 "></polyline>
<polyline clip-path="url(#clip520)" style="stroke:#000000; stroke-linecap:round; stroke-linejoin:round; stroke-width:4; stroke-opacity:1; fill:none" points="268.957,1410.17 287.855,1410.17 "></polyline>
<polyline clip-path="url(#clip520)" style="stroke:#000000; stroke-linecap:round; stroke-linejoin:round; stroke-width:4; stroke-opacity:1; fill:none" points="268.957,827.051 287.855,827.051 "></polyline>
<polyline clip-path="url(#clip520)" style="stroke:#000000; stroke-linecap:round; stroke-linejoin:round; stroke-width:4; stroke-opacity:1; fill:none" points="268.957,243.934 287.855,243.934 "></polyline>
<path clip-path="url(#clip520)" d="M162.252 1429.96 L169.891 1429.96 L169.891 1403.6 L161.581 1405.26 L161.581 1401 L169.844 1399.34 L174.52 1399.34 L174.52 1429.96 L182.159 1429.96 L182.159 1433.9 L162.252 1433.9 L162.252 1429.96 Z" fill="#000000" fill-rule="nonzero" fill-opacity="1"></path><path clip-path="url(#clip520)" d="M201.603 1402.41 Q197.992 1402.41 196.164 1405.98 Q194.358 1409.52 194.358 1416.65 Q194.358 1423.76 196.164 1427.32 Q197.992 1430.86 201.603 1430.86 Q205.238 1430.86 207.043 1427.32 Q208.872 1423.76 208.872 1416.65 Q208.872 1409.52 207.043 1405.98 Q205.238 1402.41 201.603 1402.41 M201.603 1398.71 Q207.414 1398.71 210.469 1403.32 Q213.548 1407.9 213.548 1416.65 Q213.548 1425.38 210.469 1429.98 Q207.414 1434.57 201.603 1434.57 Q195.793 1434.57 192.715 1429.98 Q189.659 1425.38 189.659 1416.65 Q189.659 1407.9 192.715 1403.32 Q195.793 1398.71 201.603 1398.71 Z" fill="#000000" fill-rule="nonzero" fill-opacity="1"></path><path clip-path="url(#clip520)" d="M223.253 1380.91 Q220.319 1380.91 218.833 1383.8 Q217.366 1386.68 217.366 1392.47 Q217.366 1398.25 218.833 1401.14 Q220.319 1404.02 223.253 1404.02 Q226.205 1404.02 227.672 1401.14 Q229.158 1398.25 229.158 1392.47 Q229.158 1386.68 227.672 1383.8 Q226.205 1380.91 223.253 1380.91 M223.253 1377.9 Q227.973 1377.9 230.456 1381.64 Q232.957 1385.36 232.957 1392.47 Q232.957 1399.56 230.456 1403.31 Q227.973 1407.03 223.253 1407.03 Q218.532 1407.03 216.03 1403.31 Q213.548 1399.56 213.548 1392.47 Q213.548 1385.36 216.03 1381.64 Q218.532 1377.9 223.253 1377.9 Z" fill="#000000" fill-rule="nonzero" fill-opacity="1"></path><path clip-path="url(#clip520)" d="M138.178 846.844 L145.817 846.844 L145.817 820.478 L137.507 822.145 L137.507 817.886 L145.77 816.219 L150.446 816.219 L150.446 846.844 L158.085 846.844 L158.085 850.779 L138.178 850.779 L138.178 846.844 Z" fill="#000000" fill-rule="nonzero" fill-opacity="1"></path><path clip-path="url(#clip520)" d="M177.529 819.298 Q173.918 819.298 172.09 822.863 Q170.284 826.404 170.284 833.534 Q170.284 840.64 172.09 844.205 Q173.918 847.747 177.529 847.747 Q181.164 847.747 182.969 844.205 Q184.798 840.64 184.798 833.534 Q184.798 826.404 182.969 822.863 Q181.164 819.298 177.529 819.298 M177.529 815.594 Q183.34 815.594 186.395 820.2 Q189.474 824.784 189.474 833.534 Q189.474 842.261 186.395 846.867 Q183.34 851.45 177.529 851.45 Q171.719 851.45 168.641 846.867 Q165.585 842.261 165.585 833.534 Q165.585 824.784 168.641 820.2 Q171.719 815.594 177.529 815.594 Z" fill="#000000" fill-rule="nonzero" fill-opacity="1"></path><path clip-path="url(#clip520)" d="M190.659 795.289 L205.573 795.289 L205.573 798.486 L194.138 798.486 L194.138 805.37 Q194.966 805.087 195.793 804.956 Q196.621 804.805 197.448 804.805 Q202.15 804.805 204.896 807.382 Q207.642 809.959 207.642 814.36 Q207.642 818.892 204.821 821.413 Q202 823.914 196.865 823.914 Q195.097 823.914 193.254 823.613 Q191.43 823.312 189.474 822.71 L189.474 818.892 Q191.167 819.814 192.972 820.265 Q194.778 820.717 196.79 820.717 Q200.044 820.717 201.943 819.005 Q203.843 817.294 203.843 814.36 Q203.843 811.426 201.943 809.714 Q200.044 808.003 196.79 808.003 Q195.267 808.003 193.743 808.341 Q192.239 808.68 190.659 809.394 L190.659 795.289 Z" fill="#000000" fill-rule="nonzero" fill-opacity="1"></path><path clip-path="url(#clip520)" d="M223.253 797.79 Q220.319 797.79 218.833 800.686 Q217.366 803.564 217.366 809.357 Q217.366 815.131 218.833 818.027 Q220.319 820.905 223.253 820.905 Q226.205 820.905 227.672 818.027 Q229.158 815.131 229.158 809.357 Q229.158 803.564 227.672 800.686 Q226.205 797.79 223.253 797.79 M223.253 794.781 Q227.973 794.781 230.456 798.524 Q232.957 802.247 232.957 809.357 Q232.957 816.447 230.456 820.19 Q227.973 823.914 223.253 823.914 Q218.532 823.914 216.03 820.19 Q213.548 816.447 213.548 809.357 Q213.548 802.247 216.03 798.524 Q218.532 794.781 223.253 794.781 Z" fill="#000000" fill-rule="nonzero" fill-opacity="1"></path><path clip-path="url(#clip520)" d="M114.931 263.727 L122.57 263.727 L122.57 237.361 L114.26 239.028 L114.26 234.768 L122.524 233.102 L127.2 233.102 L127.2 263.727 L134.839 263.727 L134.839 267.662 L114.931 267.662 L114.931 263.727 Z" fill="#000000" fill-rule="nonzero" fill-opacity="1"></path><path clip-path="url(#clip520)" d="M154.283 236.18 Q150.672 236.18 148.843 239.745 Q147.038 243.287 147.038 250.416 Q147.038 257.523 148.843 261.088 Q150.672 264.629 154.283 264.629 Q157.917 264.629 159.723 261.088 Q161.552 257.523 161.552 250.416 Q161.552 243.287 159.723 239.745 Q157.917 236.18 154.283 236.18 M154.283 232.477 Q160.093 232.477 163.149 237.083 Q166.227 241.667 166.227 250.416 Q166.227 259.143 163.149 263.75 Q160.093 268.333 154.283 268.333 Q148.473 268.333 145.394 263.75 Q142.339 259.143 142.339 250.416 Q142.339 241.667 145.394 237.083 Q148.473 232.477 154.283 232.477 Z" fill="#000000" fill-rule="nonzero" fill-opacity="1"></path><path clip-path="url(#clip520)" d="M166.773 237.054 L172.979 237.054 L172.979 215.632 L166.227 216.986 L166.227 213.526 L172.942 212.171 L176.741 212.171 L176.741 237.054 L182.948 237.054 L182.948 240.251 L166.773 240.251 L166.773 237.054 Z" fill="#000000" fill-rule="nonzero" fill-opacity="1"></path><path clip-path="url(#clip520)" d="M198.746 214.673 Q195.812 214.673 194.326 217.569 Q192.859 220.447 192.859 226.24 Q192.859 232.014 194.326 234.91 Q195.812 237.788 198.746 237.788 Q201.699 237.788 203.166 234.91 Q204.652 232.014 204.652 226.24 Q204.652 220.447 203.166 217.569 Q201.699 214.673 198.746 214.673 M198.746 211.664 Q203.467 211.664 205.949 215.406 Q208.451 219.13 208.451 226.24 Q208.451 233.33 205.949 237.073 Q203.467 240.797 198.746 240.797 Q194.025 240.797 191.524 237.073 Q189.041 233.33 189.041 226.24 Q189.041 219.13 191.524 215.406 Q194.025 211.664 198.746 211.664 Z" fill="#000000" fill-rule="nonzero" fill-opacity="1"></path><path clip-path="url(#clip520)" d="M223.253 214.673 Q220.319 214.673 218.833 217.569 Q217.366 220.447 217.366 226.24 Q217.366 232.014 218.833 234.91 Q220.319 237.788 223.253 237.788 Q226.205 237.788 227.672 234.91 Q229.158 232.014 229.158 226.24 Q229.158 220.447 227.672 217.569 Q226.205 214.673 223.253 214.673 M223.253 211.664 Q227.973 211.664 230.456 215.406 Q232.957 219.13 232.957 226.24 Q232.957 233.33 230.456 237.073 Q227.973 240.797 223.253 240.797 Q218.532 240.797 216.03 237.073 Q213.548 233.33 213.548 226.24 Q213.548 219.13 216.03 215.406 Q218.532 211.664 223.253 211.664 Z" fill="#000000" fill-rule="nonzero" fill-opacity="1"></path><path clip-path="url(#clip520)" d="M16.4842 837.445 L16.4842 827.864 L48.8219 815.738 L16.4842 803.547 L16.4842 793.967 L64.0042 793.967 L64.0042 800.237 L22.277 800.237 L54.8694 812.491 L54.8694 818.952 L22.277 831.206 L64.0042 831.206 L64.0042 837.445 L16.4842 837.445 Z" fill="#000000" fill-rule="nonzero" fill-opacity="1"></path><path clip-path="url(#clip520)" d="M18.0438 752.717 L24.314 752.717 Q22.5634 756.377 21.704 759.624 Q20.8447 762.87 20.8447 765.894 Q20.8447 771.146 22.8817 774.01 Q24.9187 776.843 28.6745 776.843 Q31.8255 776.843 33.4488 774.965 Q35.0402 773.055 36.0269 767.772 L36.8226 763.889 Q38.1912 756.696 41.6605 753.29 Q45.098 749.852 50.8908 749.852 Q57.7976 749.852 61.3624 754.499 Q64.9272 759.115 64.9272 768.058 Q64.9272 771.432 64.1633 775.252 Q63.3994 779.039 61.9035 783.113 L55.2831 783.113 Q57.4793 779.198 58.5933 775.443 Q59.7073 771.687 59.7073 768.058 Q59.7073 762.552 57.543 759.56 Q55.3786 756.568 51.3682 756.568 Q47.8671 756.568 45.8937 758.733 Q43.9204 760.865 42.9337 765.767 L42.1698 769.682 Q40.7375 776.875 37.682 780.09 Q34.6264 783.304 29.1837 783.304 Q22.8817 783.304 19.2532 778.88 Q15.6248 774.424 15.6248 766.626 Q15.6248 763.284 16.2295 759.815 Q16.8343 756.345 18.0438 752.717 Z" fill="#000000" fill-rule="nonzero" fill-opacity="1"></path><path clip-path="url(#clip520)" d="M16.4842 739.826 L16.4842 709.78 L21.895 709.78 L21.895 733.397 L35.9632 733.397 L35.9632 710.767 L41.3741 710.767 L41.3741 733.397 L58.5933 733.397 L58.5933 709.207 L64.0042 709.207 L64.0042 739.826 L16.4842 739.826 Z" fill="#000000" fill-rule="nonzero" fill-opacity="1"></path><path clip-path="url(#clip520)" d="M1043.52 12.096 L1055.71 12.096 L1071.14 53.2532 L1086.66 12.096 L1098.85 12.096 L1098.85 72.576 L1090.87 72.576 L1090.87 19.4686 L1075.28 60.9499 L1067.05 60.9499 L1051.46 19.4686 L1051.46 72.576 L1043.52 72.576 L1043.52 12.096 Z" fill="#000000" fill-rule="nonzero" fill-opacity="1"></path><path clip-path="url(#clip520)" d="M1115.1 12.096 L1126.12 12.096 L1152.93 62.6918 L1152.93 12.096 L1160.87 12.096 L1160.87 72.576 L1149.85 72.576 L1123.04 21.9802 L1123.04 72.576 L1115.1 72.576 L1115.1 12.096 Z" fill="#000000" fill-rule="nonzero" fill-opacity="1"></path><path clip-path="url(#clip520)" d="M1177.16 12.096 L1185.34 12.096 L1185.34 72.576 L1177.16 72.576 L1177.16 12.096 Z" fill="#000000" fill-rule="nonzero" fill-opacity="1"></path><path clip-path="url(#clip520)" d="M1237.88 14.0809 L1237.88 22.0612 Q1233.22 19.8332 1229.09 18.7395 Q1224.96 17.6457 1221.11 17.6457 Q1214.42 17.6457 1210.78 20.2383 Q1207.17 22.8309 1207.17 27.611 Q1207.17 31.6214 1209.56 33.6873 Q1211.99 35.7128 1218.72 36.9686 L1223.66 37.9813 Q1232.82 39.7232 1237.15 44.1387 Q1241.53 48.5136 1241.53 55.8863 Q1241.53 64.6767 1235.61 69.2137 Q1229.74 73.7508 1218.35 73.7508 Q1214.06 73.7508 1209.2 72.7785 Q1204.38 71.8063 1199.19 69.9024 L1199.19 61.4765 Q1204.18 64.2716 1208.96 65.6895 Q1213.74 67.1073 1218.35 67.1073 Q1225.36 67.1073 1229.17 64.3527 Q1232.98 61.598 1232.98 56.4939 Q1232.98 52.0379 1230.22 49.5264 Q1227.51 47.0148 1221.27 45.759 L1216.29 44.7868 Q1207.13 42.9639 1203.04 39.075 Q1198.95 35.1862 1198.95 28.2591 Q1198.95 20.2383 1204.58 15.6203 Q1210.25 11.0023 1220.18 11.0023 Q1224.43 11.0023 1228.85 11.7719 Q1233.26 12.5416 1237.88 14.0809 Z" fill="#000000" fill-rule="nonzero" fill-opacity="1"></path><path clip-path="url(#clip520)" d="M1245.9 12.096 L1297.06 12.096 L1297.06 18.9825 L1275.59 18.9825 L1275.59 72.576 L1267.37 72.576 L1267.37 18.9825 L1245.9 18.9825 L1245.9 12.096 Z" fill="#000000" fill-rule="nonzero" fill-opacity="1"></path><path clip-path="url(#clip520)" d="M1350.58 39.075 Q1345.07 39.075 1341.83 42.8424 Q1338.63 46.6097 1338.63 53.1722 Q1338.63 59.6941 1341.83 63.502 Q1345.07 67.2693 1350.58 67.2693 Q1356.09 67.2693 1359.29 63.502 Q1362.53 59.6941 1362.53 53.1722 Q1362.53 46.6097 1359.29 42.8424 Q1356.09 39.075 1350.58 39.075 M1366.82 13.4328 L1366.82 20.8865 Q1363.74 19.4281 1360.58 18.6585 Q1357.46 17.8888 1354.38 17.8888 Q1346.28 17.8888 1341.99 23.3575 Q1337.73 28.8262 1337.13 39.8852 Q1339.52 36.3609 1343.12 34.4975 Q1346.73 32.5936 1351.06 32.5936 Q1360.18 32.5936 1365.44 38.1433 Q1370.75 43.6525 1370.75 53.1722 Q1370.75 62.4892 1365.24 68.12 Q1359.73 73.7508 1350.58 73.7508 Q1340.08 73.7508 1334.53 65.73 Q1328.98 57.6687 1328.98 42.3968 Q1328.98 28.0566 1335.79 19.5497 Q1342.6 11.0023 1354.06 11.0023 Q1357.14 11.0023 1360.26 11.6099 Q1363.42 12.2175 1366.82 13.4328 Z" fill="#000000" fill-rule="nonzero" fill-opacity="1"></path><path clip-path="url(#clip520)" d="M1421.51 27.2059 L1405.1 49.2833 L1422.36 72.576 L1413.57 72.576 L1400.36 54.752 L1387.16 72.576 L1378.36 72.576 L1395.99 48.8377 L1379.86 27.2059 L1388.65 27.2059 L1400.69 43.369 L1412.72 27.2059 L1421.51 27.2059 Z" fill="#000000" fill-rule="nonzero" fill-opacity="1"></path><path clip-path="url(#clip520)" d="M1440.99 65.6895 L1469.55 65.6895 L1469.55 72.576 L1431.15 72.576 L1431.15 65.6895 Q1435.81 60.8689 1443.83 52.7671 Q1451.89 44.6248 1453.95 42.2752 Q1457.88 37.8598 1459.42 34.8216 Q1461 31.7429 1461 28.7857 Q1461 23.9651 1457.6 20.927 Q1454.24 17.8888 1448.81 17.8888 Q1444.96 17.8888 1440.67 19.2256 Q1436.41 20.5624 1431.55 23.2765 L1431.55 15.0127 Q1436.5 13.0277 1440.79 12.015 Q1445.08 11.0023 1448.65 11.0023 Q1458.05 11.0023 1463.64 15.7013 Q1469.23 20.4004 1469.23 28.2591 Q1469.23 31.9859 1467.81 35.3482 Q1466.43 38.6699 1462.75 43.2069 Q1461.73 44.3817 1456.3 50.0125 Q1450.88 55.6027 1440.99 65.6895 Z" fill="#000000" fill-rule="nonzero" fill-opacity="1"></path><path clip-path="url(#clip520)" d="M1486.81 12.096 L1518.93 12.096 L1518.93 18.9825 L1494.3 18.9825 L1494.3 33.8088 Q1496.08 33.2012 1497.87 32.9176 Q1499.65 32.5936 1501.43 32.5936 Q1511.56 32.5936 1517.47 38.1433 Q1523.39 43.6931 1523.39 53.1722 Q1523.39 62.9348 1517.31 68.3631 Q1511.23 73.7508 1500.18 73.7508 Q1496.37 73.7508 1492.4 73.1026 Q1488.47 72.4545 1484.26 71.1582 L1484.26 62.9348 Q1487.9 64.9198 1491.79 65.892 Q1495.68 66.8642 1500.01 66.8642 Q1507.02 66.8642 1511.11 63.1779 Q1515.2 59.4916 1515.2 53.1722 Q1515.2 46.8528 1511.11 43.1664 Q1507.02 39.4801 1500.01 39.4801 Q1496.73 39.4801 1493.45 40.2093 Q1490.21 40.9384 1486.81 42.4778 L1486.81 12.096 Z" fill="#000000" fill-rule="nonzero" fill-opacity="1"></path><path clip-path="url(#clip520)" d="M1558.02 39.075 Q1552.51 39.075 1549.27 42.8424 Q1546.07 46.6097 1546.07 53.1722 Q1546.07 59.6941 1549.27 63.502 Q1552.51 67.2693 1558.02 67.2693 Q1563.53 67.2693 1566.73 63.502 Q1569.97 59.6941 1569.97 53.1722 Q1569.97 46.6097 1566.73 42.8424 Q1563.53 39.075 1558.02 39.075 M1574.27 13.4328 L1574.27 20.8865 Q1571.19 19.4281 1568.03 18.6585 Q1564.91 17.8888 1561.83 17.8888 Q1553.73 17.8888 1549.43 23.3575 Q1545.18 28.8262 1544.57 39.8852 Q1546.96 36.3609 1550.57 34.4975 Q1554.17 32.5936 1558.51 32.5936 Q1567.62 32.5936 1572.89 38.1433 Q1578.2 43.6525 1578.2 53.1722 Q1578.2 62.4892 1572.69 68.12 Q1567.18 73.7508 1558.02 73.7508 Q1547.53 73.7508 1541.98 65.73 Q1536.43 57.6687 1536.43 42.3968 Q1536.43 28.0566 1543.24 19.5497 Q1550.04 11.0023 1561.51 11.0023 Q1564.59 11.0023 1567.7 11.6099 Q1570.86 12.2175 1574.27 13.4328 Z" fill="#000000" fill-rule="nonzero" fill-opacity="1"></path><polyline clip-path="url(#clip522)" style="stroke:#009af9; stroke-linecap:round; stroke-linejoin:round; stroke-width:4; stroke-opacity:1; fill:none" points="327.933,1378.11 337.811,1312.74 347.69,1304.55 357.569,1299.92 367.447,1300.78 377.326,1302.12 387.205,1303.6 397.083,1304.22 406.962,1305.25 416.841,1306.29 515.627,1314.4 614.413,1319.11 713.199,1322.02 811.986,1323.75 910.772,1324.77 1009.56,1325.4 1108.34,1325.87 1207.13,1326.31 1305.92,1326.74 1404.7,1327.19 1503.49,1327.7 1602.28,1328.2 1701.06,1328.76 1799.85,1329.31 1898.64,1329.91 1997.42,1330.47 2096.21,1331.05 2194.99,1331.64 2293.78,1332.23 "></polyline>
<path clip-path="url(#clip522)" d="M327.933 1362.11 L311.933 1378.11 L327.933 1394.11 L343.933 1378.11 L327.933 1362.11 Z" fill="#009af9" fill-rule="evenodd" fill-opacity="1" stroke="#000000" stroke-opacity="1" stroke-width="3.2"></path>
<path clip-path="url(#clip522)" d="M337.811 1296.74 L321.811 1312.74 L337.811 1328.74 L353.811 1312.74 L337.811 1296.74 Z" fill="#009af9" fill-rule="evenodd" fill-opacity="1" stroke="#000000" stroke-opacity="1" stroke-width="3.2"></path>
<path clip-path="url(#clip522)" d="M347.69 1288.55 L331.69 1304.55 L347.69 1320.55 L363.69 1304.55 L347.69 1288.55 Z" fill="#009af9" fill-rule="evenodd" fill-opacity="1" stroke="#000000" stroke-opacity="1" stroke-width="3.2"></path>
<path clip-path="url(#clip522)" d="M357.569 1283.92 L341.569 1299.92 L357.569 1315.92 L373.569 1299.92 L357.569 1283.92 Z" fill="#009af9" fill-rule="evenodd" fill-opacity="1" stroke="#000000" stroke-opacity="1" stroke-width="3.2"></path>
<path clip-path="url(#clip522)" d="M367.447 1284.78 L351.447 1300.78 L367.447 1316.78 L383.447 1300.78 L367.447 1284.78 Z" fill="#009af9" fill-rule="evenodd" fill-opacity="1" stroke="#000000" stroke-opacity="1" stroke-width="3.2"></path>
<path clip-path="url(#clip522)" d="M377.326 1286.12 L361.326 1302.12 L377.326 1318.12 L393.326 1302.12 L377.326 1286.12 Z" fill="#009af9" fill-rule="evenodd" fill-opacity="1" stroke="#000000" stroke-opacity="1" stroke-width="3.2"></path>
<path clip-path="url(#clip522)" d="M387.205 1287.6 L371.205 1303.6 L387.205 1319.6 L403.205 1303.6 L387.205 1287.6 Z" fill="#009af9" fill-rule="evenodd" fill-opacity="1" stroke="#000000" stroke-opacity="1" stroke-width="3.2"></path>
<path clip-path="url(#clip522)" d="M397.083 1288.22 L381.083 1304.22 L397.083 1320.22 L413.083 1304.22 L397.083 1288.22 Z" fill="#009af9" fill-rule="evenodd" fill-opacity="1" stroke="#000000" stroke-opacity="1" stroke-width="3.2"></path>
<path clip-path="url(#clip522)" d="M406.962 1289.25 L390.962 1305.25 L406.962 1321.25 L422.962 1305.25 L406.962 1289.25 Z" fill="#009af9" fill-rule="evenodd" fill-opacity="1" stroke="#000000" stroke-opacity="1" stroke-width="3.2"></path>
<path clip-path="url(#clip522)" d="M416.841 1290.29 L400.841 1306.29 L416.841 1322.29 L432.841 1306.29 L416.841 1290.29 Z" fill="#009af9" fill-rule="evenodd" fill-opacity="1" stroke="#000000" stroke-opacity="1" stroke-width="3.2"></path>
<path clip-path="url(#clip522)" d="M515.627 1298.4 L499.627 1314.4 L515.627 1330.4 L531.627 1314.4 L515.627 1298.4 Z" fill="#009af9" fill-rule="evenodd" fill-opacity="1" stroke="#000000" stroke-opacity="1" stroke-width="3.2"></path>
<path clip-path="url(#clip522)" d="M614.413 1303.11 L598.413 1319.11 L614.413 1335.11 L630.413 1319.11 L614.413 1303.11 Z" fill="#009af9" fill-rule="evenodd" fill-opacity="1" stroke="#000000" stroke-opacity="1" stroke-width="3.2"></path>
<path clip-path="url(#clip522)" d="M713.199 1306.02 L697.199 1322.02 L713.199 1338.02 L729.199 1322.02 L713.199 1306.02 Z" fill="#009af9" fill-rule="evenodd" fill-opacity="1" stroke="#000000" stroke-opacity="1" stroke-width="3.2"></path>
<path clip-path="url(#clip522)" d="M811.986 1307.75 L795.986 1323.75 L811.986 1339.75 L827.986 1323.75 L811.986 1307.75 Z" fill="#009af9" fill-rule="evenodd" fill-opacity="1" stroke="#000000" stroke-opacity="1" stroke-width="3.2"></path>
<path clip-path="url(#clip522)" d="M910.772 1308.77 L894.772 1324.77 L910.772 1340.77 L926.772 1324.77 L910.772 1308.77 Z" fill="#009af9" fill-rule="evenodd" fill-opacity="1" stroke="#000000" stroke-opacity="1" stroke-width="3.2"></path>
<path clip-path="url(#clip522)" d="M1009.56 1309.4 L993.558 1325.4 L1009.56 1341.4 L1025.56 1325.4 L1009.56 1309.4 Z" fill="#009af9" fill-rule="evenodd" fill-opacity="1" stroke="#000000" stroke-opacity="1" stroke-width="3.2"></path>
<path clip-path="url(#clip522)" d="M1108.34 1309.87 L1092.34 1325.87 L1108.34 1341.87 L1124.34 1325.87 L1108.34 1309.87 Z" fill="#009af9" fill-rule="evenodd" fill-opacity="1" stroke="#000000" stroke-opacity="1" stroke-width="3.2"></path>
<path clip-path="url(#clip522)" d="M1207.13 1310.31 L1191.13 1326.31 L1207.13 1342.31 L1223.13 1326.31 L1207.13 1310.31 Z" fill="#009af9" fill-rule="evenodd" fill-opacity="1" stroke="#000000" stroke-opacity="1" stroke-width="3.2"></path>
<path clip-path="url(#clip522)" d="M1305.92 1310.74 L1289.92 1326.74 L1305.92 1342.74 L1321.92 1326.74 L1305.92 1310.74 Z" fill="#009af9" fill-rule="evenodd" fill-opacity="1" stroke="#000000" stroke-opacity="1" stroke-width="3.2"></path>
<path clip-path="url(#clip522)" d="M1404.7 1311.19 L1388.7 1327.19 L1404.7 1343.19 L1420.7 1327.19 L1404.7 1311.19 Z" fill="#009af9" fill-rule="evenodd" fill-opacity="1" stroke="#000000" stroke-opacity="1" stroke-width="3.2"></path>
<path clip-path="url(#clip522)" d="M1503.49 1311.7 L1487.49 1327.7 L1503.49 1343.7 L1519.49 1327.7 L1503.49 1311.7 Z" fill="#009af9" fill-rule="evenodd" fill-opacity="1" stroke="#000000" stroke-opacity="1" stroke-width="3.2"></path>
<path clip-path="url(#clip522)" d="M1602.28 1312.2 L1586.28 1328.2 L1602.28 1344.2 L1618.28 1328.2 L1602.28 1312.2 Z" fill="#009af9" fill-rule="evenodd" fill-opacity="1" stroke="#000000" stroke-opacity="1" stroke-width="3.2"></path>
<path clip-path="url(#clip522)" d="M1701.06 1312.76 L1685.06 1328.76 L1701.06 1344.76 L1717.06 1328.76 L1701.06 1312.76 Z" fill="#009af9" fill-rule="evenodd" fill-opacity="1" stroke="#000000" stroke-opacity="1" stroke-width="3.2"></path>
<path clip-path="url(#clip522)" d="M1799.85 1313.31 L1783.85 1329.31 L1799.85 1345.31 L1815.85 1329.31 L1799.85 1313.31 Z" fill="#009af9" fill-rule="evenodd" fill-opacity="1" stroke="#000000" stroke-opacity="1" stroke-width="3.2"></path>
<path clip-path="url(#clip522)" d="M1898.64 1313.91 L1882.64 1329.91 L1898.64 1345.91 L1914.64 1329.91 L1898.64 1313.91 Z" fill="#009af9" fill-rule="evenodd" fill-opacity="1" stroke="#000000" stroke-opacity="1" stroke-width="3.2"></path>
<path clip-path="url(#clip522)" d="M1997.42 1314.47 L1981.42 1330.47 L1997.42 1346.47 L2013.42 1330.47 L1997.42 1314.47 Z" fill="#009af9" fill-rule="evenodd" fill-opacity="1" stroke="#000000" stroke-opacity="1" stroke-width="3.2"></path>
<path clip-path="url(#clip522)" d="M2096.21 1315.05 L2080.21 1331.05 L2096.21 1347.05 L2112.21 1331.05 L2096.21 1315.05 Z" fill="#009af9" fill-rule="evenodd" fill-opacity="1" stroke="#000000" stroke-opacity="1" stroke-width="3.2"></path>
<path clip-path="url(#clip522)" d="M2194.99 1315.64 L2178.99 1331.64 L2194.99 1347.64 L2210.99 1331.64 L2194.99 1315.64 Z" fill="#009af9" fill-rule="evenodd" fill-opacity="1" stroke="#000000" stroke-opacity="1" stroke-width="3.2"></path>
<path clip-path="url(#clip522)" d="M2293.78 1316.23 L2277.78 1332.23 L2293.78 1348.23 L2309.78 1332.23 L2293.78 1316.23 Z" fill="#009af9" fill-rule="evenodd" fill-opacity="1" stroke="#000000" stroke-opacity="1" stroke-width="3.2"></path>
<polyline clip-path="url(#clip522)" style="stroke:#e26f46; stroke-linecap:round; stroke-linejoin:round; stroke-width:4; stroke-opacity:1; fill:none" points="327.933,1369.99 337.811,1378.38 347.69,1379.03 357.569,1382.82 367.447,1384.76 377.326,1385.05 387.205,1385.65 397.083,1385.81 406.962,1386.24 416.841,1386.4 515.627,1378.61 614.413,1302.46 713.199,1238.85 811.986,1195.82 910.772,1155.45 1009.56,1064.3 1108.34,976.346 1207.13,891.535 1305.92,876.383 1404.7,876.537 1503.49,761.209 1602.28,644.677 1701.06,568.64 1799.85,503.317 1898.64,477.887 1997.42,422.662 2096.21,363.249 2194.99,300.444 2293.78,160.256 "></polyline>
<path clip-path="url(#clip522)" d="M327.933 1353.99 L311.933 1369.99 L327.933 1385.99 L343.933 1369.99 L327.933 1353.99 Z" fill="#e26f46" fill-rule="evenodd" fill-opacity="1" stroke="#000000" stroke-opacity="1" stroke-width="3.2"></path>
<path clip-path="url(#clip522)" d="M337.811 1362.38 L321.811 1378.38 L337.811 1394.38 L353.811 1378.38 L337.811 1362.38 Z" fill="#e26f46" fill-rule="evenodd" fill-opacity="1" stroke="#000000" stroke-opacity="1" stroke-width="3.2"></path>
<path clip-path="url(#clip522)" d="M347.69 1363.03 L331.69 1379.03 L347.69 1395.03 L363.69 1379.03 L347.69 1363.03 Z" fill="#e26f46" fill-rule="evenodd" fill-opacity="1" stroke="#000000" stroke-opacity="1" stroke-width="3.2"></path>
<path clip-path="url(#clip522)" d="M357.569 1366.82 L341.569 1382.82 L357.569 1398.82 L373.569 1382.82 L357.569 1366.82 Z" fill="#e26f46" fill-rule="evenodd" fill-opacity="1" stroke="#000000" stroke-opacity="1" stroke-width="3.2"></path>
<path clip-path="url(#clip522)" d="M367.447 1368.76 L351.447 1384.76 L367.447 1400.76 L383.447 1384.76 L367.447 1368.76 Z" fill="#e26f46" fill-rule="evenodd" fill-opacity="1" stroke="#000000" stroke-opacity="1" stroke-width="3.2"></path>
<path clip-path="url(#clip522)" d="M377.326 1369.05 L361.326 1385.05 L377.326 1401.05 L393.326 1385.05 L377.326 1369.05 Z" fill="#e26f46" fill-rule="evenodd" fill-opacity="1" stroke="#000000" stroke-opacity="1" stroke-width="3.2"></path>
<path clip-path="url(#clip522)" d="M387.205 1369.65 L371.205 1385.65 L387.205 1401.65 L403.205 1385.65 L387.205 1369.65 Z" fill="#e26f46" fill-rule="evenodd" fill-opacity="1" stroke="#000000" stroke-opacity="1" stroke-width="3.2"></path>
<path clip-path="url(#clip522)" d="M397.083 1369.81 L381.083 1385.81 L397.083 1401.81 L413.083 1385.81 L397.083 1369.81 Z" fill="#e26f46" fill-rule="evenodd" fill-opacity="1" stroke="#000000" stroke-opacity="1" stroke-width="3.2"></path>
<path clip-path="url(#clip522)" d="M406.962 1370.24 L390.962 1386.24 L406.962 1402.24 L422.962 1386.24 L406.962 1370.24 Z" fill="#e26f46" fill-rule="evenodd" fill-opacity="1" stroke="#000000" stroke-opacity="1" stroke-width="3.2"></path>
<path clip-path="url(#clip522)" d="M416.841 1370.4 L400.841 1386.4 L416.841 1402.4 L432.841 1386.4 L416.841 1370.4 Z" fill="#e26f46" fill-rule="evenodd" fill-opacity="1" stroke="#000000" stroke-opacity="1" stroke-width="3.2"></path>
<path clip-path="url(#clip522)" d="M515.627 1362.61 L499.627 1378.61 L515.627 1394.61 L531.627 1378.61 L515.627 1362.61 Z" fill="#e26f46" fill-rule="evenodd" fill-opacity="1" stroke="#000000" stroke-opacity="1" stroke-width="3.2"></path>
<path clip-path="url(#clip522)" d="M614.413 1286.46 L598.413 1302.46 L614.413 1318.46 L630.413 1302.46 L614.413 1286.46 Z" fill="#e26f46" fill-rule="evenodd" fill-opacity="1" stroke="#000000" stroke-opacity="1" stroke-width="3.2"></path>
<path clip-path="url(#clip522)" d="M713.199 1222.85 L697.199 1238.85 L713.199 1254.85 L729.199 1238.85 L713.199 1222.85 Z" fill="#e26f46" fill-rule="evenodd" fill-opacity="1" stroke="#000000" stroke-opacity="1" stroke-width="3.2"></path>
<path clip-path="url(#clip522)" d="M811.986 1179.82 L795.986 1195.82 L811.986 1211.82 L827.986 1195.82 L811.986 1179.82 Z" fill="#e26f46" fill-rule="evenodd" fill-opacity="1" stroke="#000000" stroke-opacity="1" stroke-width="3.2"></path>
<path clip-path="url(#clip522)" d="M910.772 1139.45 L894.772 1155.45 L910.772 1171.45 L926.772 1155.45 L910.772 1139.45 Z" fill="#e26f46" fill-rule="evenodd" fill-opacity="1" stroke="#000000" stroke-opacity="1" stroke-width="3.2"></path>
<path clip-path="url(#clip522)" d="M1009.56 1048.3 L993.558 1064.3 L1009.56 1080.3 L1025.56 1064.3 L1009.56 1048.3 Z" fill="#e26f46" fill-rule="evenodd" fill-opacity="1" stroke="#000000" stroke-opacity="1" stroke-width="3.2"></path>
<path clip-path="url(#clip522)" d="M1108.34 960.346 L1092.34 976.346 L1108.34 992.346 L1124.34 976.346 L1108.34 960.346 Z" fill="#e26f46" fill-rule="evenodd" fill-opacity="1" stroke="#000000" stroke-opacity="1" stroke-width="3.2"></path>
<path clip-path="url(#clip522)" d="M1207.13 875.535 L1191.13 891.535 L1207.13 907.535 L1223.13 891.535 L1207.13 875.535 Z" fill="#e26f46" fill-rule="evenodd" fill-opacity="1" stroke="#000000" stroke-opacity="1" stroke-width="3.2"></path>
<path clip-path="url(#clip522)" d="M1305.92 860.383 L1289.92 876.383 L1305.92 892.383 L1321.92 876.383 L1305.92 860.383 Z" fill="#e26f46" fill-rule="evenodd" fill-opacity="1" stroke="#000000" stroke-opacity="1" stroke-width="3.2"></path>
<path clip-path="url(#clip522)" d="M1404.7 860.537 L1388.7 876.537 L1404.7 892.537 L1420.7 876.537 L1404.7 860.537 Z" fill="#e26f46" fill-rule="evenodd" fill-opacity="1" stroke="#000000" stroke-opacity="1" stroke-width="3.2"></path>
<path clip-path="url(#clip522)" d="M1503.49 745.209 L1487.49 761.209 L1503.49 777.209 L1519.49 761.209 L1503.49 745.209 Z" fill="#e26f46" fill-rule="evenodd" fill-opacity="1" stroke="#000000" stroke-opacity="1" stroke-width="3.2"></path>
<path clip-path="url(#clip522)" d="M1602.28 628.677 L1586.28 644.677 L1602.28 660.677 L1618.28 644.677 L1602.28 628.677 Z" fill="#e26f46" fill-rule="evenodd" fill-opacity="1" stroke="#000000" stroke-opacity="1" stroke-width="3.2"></path>
<path clip-path="url(#clip522)" d="M1701.06 552.64 L1685.06 568.64 L1701.06 584.64 L1717.06 568.64 L1701.06 552.64 Z" fill="#e26f46" fill-rule="evenodd" fill-opacity="1" stroke="#000000" stroke-opacity="1" stroke-width="3.2"></path>
<path clip-path="url(#clip522)" d="M1799.85 487.317 L1783.85 503.317 L1799.85 519.317 L1815.85 503.317 L1799.85 487.317 Z" fill="#e26f46" fill-rule="evenodd" fill-opacity="1" stroke="#000000" stroke-opacity="1" stroke-width="3.2"></path>
<path clip-path="url(#clip522)" d="M1898.64 461.887 L1882.64 477.887 L1898.64 493.887 L1914.64 477.887 L1898.64 461.887 Z" fill="#e26f46" fill-rule="evenodd" fill-opacity="1" stroke="#000000" stroke-opacity="1" stroke-width="3.2"></path>
<path clip-path="url(#clip522)" d="M1997.42 406.662 L1981.42 422.662 L1997.42 438.662 L2013.42 422.662 L1997.42 406.662 Z" fill="#e26f46" fill-rule="evenodd" fill-opacity="1" stroke="#000000" stroke-opacity="1" stroke-width="3.2"></path>
<path clip-path="url(#clip522)" d="M2096.21 347.249 L2080.21 363.249 L2096.21 379.249 L2112.21 363.249 L2096.21 347.249 Z" fill="#e26f46" fill-rule="evenodd" fill-opacity="1" stroke="#000000" stroke-opacity="1" stroke-width="3.2"></path>
<path clip-path="url(#clip522)" d="M2194.99 284.444 L2178.99 300.444 L2194.99 316.444 L2210.99 300.444 L2194.99 284.444 Z" fill="#e26f46" fill-rule="evenodd" fill-opacity="1" stroke="#000000" stroke-opacity="1" stroke-width="3.2"></path>
<path clip-path="url(#clip522)" d="M2293.78 144.256 L2277.78 160.256 L2293.78 176.256 L2309.78 160.256 L2293.78 144.256 Z" fill="#e26f46" fill-rule="evenodd" fill-opacity="1" stroke="#000000" stroke-opacity="1" stroke-width="3.2"></path>
<path clip-path="url(#clip520)" d="M1887.21 322.316 L2283.3 322.316 L2283.3 166.796 L1887.21 166.796  Z" fill="#ffffff" fill-rule="evenodd" fill-opacity="1"></path>
<polyline clip-path="url(#clip520)" style="stroke:#000000; stroke-linecap:round; stroke-linejoin:round; stroke-width:4; stroke-opacity:1; fill:none" points="1887.21,322.316 2283.3,322.316 2283.3,166.796 1887.21,166.796 1887.21,322.316 "></polyline>
<polyline clip-path="url(#clip520)" style="stroke:#009af9; stroke-linecap:round; stroke-linejoin:round; stroke-width:4; stroke-opacity:1; fill:none" points="1910.36,218.636 2049.28,218.636 "></polyline>
<path clip-path="url(#clip520)" d="M1979.82 197.197 L1958.38 218.636 L1979.82 240.074 L2001.26 218.636 L1979.82 197.197 Z" fill="#009af9" fill-rule="evenodd" fill-opacity="1" stroke="#000000" stroke-opacity="1" stroke-width="4.55111"></path>
<path clip-path="url(#clip520)" d="M2092.78 214.967 Q2094.38 212.096 2096.6 210.731 Q2098.82 209.365 2101.83 209.365 Q2105.88 209.365 2108.08 212.212 Q2110.28 215.036 2110.28 220.268 L2110.28 235.916 L2106 235.916 L2106 220.407 Q2106 216.68 2104.68 214.874 Q2103.36 213.069 2100.65 213.069 Q2097.34 213.069 2095.42 215.268 Q2093.5 217.467 2093.5 221.263 L2093.5 235.916 L2089.22 235.916 L2089.22 220.407 Q2089.22 216.657 2087.9 214.874 Q2086.58 213.069 2083.82 213.069 Q2080.56 213.069 2078.64 215.291 Q2076.72 217.49 2076.72 221.263 L2076.72 235.916 L2072.44 235.916 L2072.44 209.99 L2076.72 209.99 L2076.72 214.018 Q2078.18 211.633 2080.21 210.499 Q2082.25 209.365 2085.05 209.365 Q2087.88 209.365 2089.84 210.8 Q2091.83 212.235 2092.78 214.967 Z" fill="#000000" fill-rule="nonzero" fill-opacity="1"></path><path clip-path="url(#clip520)" d="M2135.31 210.754 L2135.31 214.782 Q2133.5 213.856 2131.56 213.393 Q2129.61 212.93 2127.53 212.93 Q2124.36 212.93 2122.76 213.902 Q2121.19 214.874 2121.19 216.819 Q2121.19 218.3 2122.32 219.157 Q2123.45 219.99 2126.88 220.754 L2128.34 221.078 Q2132.87 222.05 2134.77 223.832 Q2136.69 225.592 2136.69 228.763 Q2136.69 232.374 2133.82 234.481 Q2130.98 236.587 2125.98 236.587 Q2123.89 236.587 2121.62 236.17 Q2119.38 235.777 2116.88 234.967 L2116.88 230.569 Q2119.24 231.795 2121.53 232.42 Q2123.82 233.022 2126.07 233.022 Q2129.08 233.022 2130.7 232.004 Q2132.32 230.962 2132.32 229.087 Q2132.32 227.351 2131.14 226.425 Q2129.98 225.499 2126.02 224.643 L2124.54 224.295 Q2120.58 223.462 2118.82 221.749 Q2117.06 220.013 2117.06 217.004 Q2117.06 213.346 2119.66 211.356 Q2122.25 209.365 2127.02 209.365 Q2129.38 209.365 2131.46 209.712 Q2133.55 210.059 2135.31 210.754 Z" fill="#000000" fill-rule="nonzero" fill-opacity="1"></path><path clip-path="url(#clip520)" d="M2165.65 221.888 L2165.65 223.971 L2146.07 223.971 Q2146.35 228.369 2148.71 230.684 Q2151.09 232.976 2155.33 232.976 Q2157.78 232.976 2160.07 232.374 Q2162.39 231.772 2164.66 230.569 L2164.66 234.596 Q2162.37 235.568 2159.96 236.078 Q2157.55 236.587 2155.07 236.587 Q2148.87 236.587 2145.24 232.976 Q2141.62 229.365 2141.62 223.207 Q2141.62 216.842 2145.05 213.115 Q2148.5 209.365 2154.33 209.365 Q2159.56 209.365 2162.6 212.745 Q2165.65 216.101 2165.65 221.888 M2161.39 220.638 Q2161.35 217.143 2159.43 215.059 Q2157.53 212.976 2154.38 212.976 Q2150.81 212.976 2148.66 214.99 Q2146.53 217.004 2146.21 220.661 L2161.39 220.638 Z" fill="#000000" fill-rule="nonzero" fill-opacity="1"></path><path clip-path="url(#clip520)" d="M2189.17 210.754 L2189.17 214.782 Q2187.37 213.856 2185.42 213.393 Q2183.48 212.93 2181.39 212.93 Q2178.22 212.93 2176.62 213.902 Q2175.05 214.874 2175.05 216.819 Q2175.05 218.3 2176.18 219.157 Q2177.32 219.99 2180.74 220.754 L2182.2 221.078 Q2186.74 222.05 2188.64 223.832 Q2190.56 225.592 2190.56 228.763 Q2190.56 232.374 2187.69 234.481 Q2184.84 236.587 2179.84 236.587 Q2177.76 236.587 2175.49 236.17 Q2173.24 235.777 2170.74 234.967 L2170.74 230.569 Q2173.11 231.795 2175.4 232.42 Q2177.69 233.022 2179.93 233.022 Q2182.94 233.022 2184.56 232.004 Q2186.18 230.962 2186.18 229.087 Q2186.18 227.351 2185 226.425 Q2183.85 225.499 2179.89 224.643 L2178.41 224.295 Q2174.45 223.462 2172.69 221.749 Q2170.93 220.013 2170.93 217.004 Q2170.93 213.346 2173.52 211.356 Q2176.12 209.365 2180.88 209.365 Q2183.24 209.365 2185.33 209.712 Q2187.41 210.059 2189.17 210.754 Z" fill="#000000" fill-rule="nonzero" fill-opacity="1"></path><polyline clip-path="url(#clip520)" style="stroke:#e26f46; stroke-linecap:round; stroke-linejoin:round; stroke-width:4; stroke-opacity:1; fill:none" points="1910.36,270.476 2049.28,270.476 "></polyline>
<path clip-path="url(#clip520)" d="M1979.82 249.037 L1958.38 270.476 L1979.82 291.914 L2001.26 270.476 L1979.82 249.037 Z" fill="#e26f46" fill-rule="evenodd" fill-opacity="1" stroke="#000000" stroke-opacity="1" stroke-width="4.55111"></path>
<path clip-path="url(#clip520)" d="M2092.78 266.807 Q2094.38 263.936 2096.6 262.571 Q2098.82 261.205 2101.83 261.205 Q2105.88 261.205 2108.08 264.052 Q2110.28 266.876 2110.28 272.108 L2110.28 287.756 L2106 287.756 L2106 272.247 Q2106 268.52 2104.68 266.714 Q2103.36 264.909 2100.65 264.909 Q2097.34 264.909 2095.42 267.108 Q2093.5 269.307 2093.5 273.103 L2093.5 287.756 L2089.22 287.756 L2089.22 272.247 Q2089.22 268.497 2087.9 266.714 Q2086.58 264.909 2083.82 264.909 Q2080.56 264.909 2078.64 267.131 Q2076.72 269.33 2076.72 273.103 L2076.72 287.756 L2072.44 287.756 L2072.44 261.83 L2076.72 261.83 L2076.72 265.858 Q2078.18 263.473 2080.21 262.339 Q2082.25 261.205 2085.05 261.205 Q2087.88 261.205 2089.84 262.64 Q2091.83 264.075 2092.78 266.807 Z" fill="#000000" fill-rule="nonzero" fill-opacity="1"></path><path clip-path="url(#clip520)" d="M2135.31 262.594 L2135.31 266.622 Q2133.5 265.696 2131.56 265.233 Q2129.61 264.77 2127.53 264.77 Q2124.36 264.77 2122.76 265.742 Q2121.19 266.714 2121.19 268.659 Q2121.19 270.14 2122.32 270.997 Q2123.45 271.83 2126.88 272.594 L2128.34 272.918 Q2132.87 273.89 2134.77 275.672 Q2136.69 277.432 2136.69 280.603 Q2136.69 284.214 2133.82 286.321 Q2130.98 288.427 2125.98 288.427 Q2123.89 288.427 2121.62 288.01 Q2119.38 287.617 2116.88 286.807 L2116.88 282.409 Q2119.24 283.635 2121.53 284.26 Q2123.82 284.862 2126.07 284.862 Q2129.08 284.862 2130.7 283.844 Q2132.32 282.802 2132.32 280.927 Q2132.32 279.191 2131.14 278.265 Q2129.98 277.339 2126.02 276.483 L2124.54 276.135 Q2120.58 275.302 2118.82 273.589 Q2117.06 271.853 2117.06 268.844 Q2117.06 265.186 2119.66 263.196 Q2122.25 261.205 2127.02 261.205 Q2129.38 261.205 2131.46 261.552 Q2133.55 261.899 2135.31 262.594 Z" fill="#000000" fill-rule="nonzero" fill-opacity="1"></path><path clip-path="url(#clip520)" d="M2165.65 273.728 L2165.65 275.811 L2146.07 275.811 Q2146.35 280.209 2148.71 282.524 Q2151.09 284.816 2155.33 284.816 Q2157.78 284.816 2160.07 284.214 Q2162.39 283.612 2164.66 282.409 L2164.66 286.436 Q2162.37 287.408 2159.96 287.918 Q2157.55 288.427 2155.07 288.427 Q2148.87 288.427 2145.24 284.816 Q2141.62 281.205 2141.62 275.047 Q2141.62 268.682 2145.05 264.955 Q2148.5 261.205 2154.33 261.205 Q2159.56 261.205 2162.6 264.585 Q2165.65 267.941 2165.65 273.728 M2161.39 272.478 Q2161.35 268.983 2159.43 266.899 Q2157.53 264.816 2154.38 264.816 Q2150.81 264.816 2148.66 266.83 Q2146.53 268.844 2146.21 272.501 L2161.39 272.478 Z" fill="#000000" fill-rule="nonzero" fill-opacity="1"></path><path clip-path="url(#clip520)" d="M2189.17 262.594 L2189.17 266.622 Q2187.37 265.696 2185.42 265.233 Q2183.48 264.77 2181.39 264.77 Q2178.22 264.77 2176.62 265.742 Q2175.05 266.714 2175.05 268.659 Q2175.05 270.14 2176.18 270.997 Q2177.32 271.83 2180.74 272.594 L2182.2 272.918 Q2186.74 273.89 2188.64 275.672 Q2190.56 277.432 2190.56 280.603 Q2190.56 284.214 2187.69 286.321 Q2184.84 288.427 2179.84 288.427 Q2177.76 288.427 2175.49 288.01 Q2173.24 287.617 2170.74 286.807 L2170.74 282.409 Q2173.11 283.635 2175.4 284.26 Q2177.69 284.862 2179.93 284.862 Q2182.94 284.862 2184.56 283.844 Q2186.18 282.802 2186.18 280.927 Q2186.18 279.191 2185 278.265 Q2183.85 277.339 2179.89 276.483 L2178.41 276.135 Q2174.45 275.302 2172.69 273.589 Q2170.93 271.853 2170.93 268.844 Q2170.93 265.186 2173.52 263.196 Q2176.12 261.205 2180.88 261.205 Q2183.24 261.205 2185.33 261.552 Q2187.41 261.899 2189.17 262.594 Z" fill="#000000" fill-rule="nonzero" fill-opacity="1"></path><path clip-path="url(#clip520)" d="M2212.6 253.196 L2217.27 253.196 L2217.27 283.821 L2234.1 283.821 L2234.1 287.756 L2212.6 287.756 L2212.6 253.196 Z" fill="#000000" fill-rule="nonzero" fill-opacity="1"></path><path clip-path="url(#clip520)" d="M2240.24 283.821 L2247.87 283.821 L2247.87 257.455 L2239.56 259.122 L2239.56 254.862 L2247.83 253.196 L2252.5 253.196 L2252.5 283.821 L2260.14 283.821 L2260.14 287.756 L2240.24 287.756 L2240.24 283.821 Z" fill="#000000" fill-rule="nonzero" fill-opacity="1"></path></svg>