<svg xmlns="http://www.w3.org/2000/svg" xmlns:xlink="http://www.w3.org/1999/xlink" width="600" height="400" viewBox="0 0 2400 1600">
<defs>
  <clipPath id="clip230">
    <rect x="0" y="0" width="2400" height="1600"></rect>
  </clipPath>
</defs>
<path clip-path="url(#clip230)" d="M0 1600 L2400 1600 L2400 0 L0 0  Z" fill="#ffffff" fill-rule="evenodd" fill-opacity="1"></path>
<defs>
  <clipPath id="clip231">
    <rect x="480" y="0" width="1681" height="1600"></rect>
  </clipPath>
</defs>
<path clip-path="url(#clip230)" d="M251.372 1423.18 L2352.76 1423.18 L2352.76 47.2441 L251.372 47.2441  Z" fill="#ffffff" fill-rule="evenodd" fill-opacity="1"></path>
<defs>
  <clipPath id="clip232">
    <rect x="251" y="47" width="2102" height="1377"></rect>
  </clipPath>
</defs>
<polyline clip-path="url(#clip232)" style="stroke:#000000; stroke-linecap:round; stroke-linejoin:round; stroke-width:2; stroke-opacity:0.1; fill:none" points="290.616,1423.18 290.616,47.2441 "></polyline>
<polyline clip-path="url(#clip232)" style="stroke:#000000; stroke-linecap:round; stroke-linejoin:round; stroke-width:2; stroke-opacity:0.1; fill:none" points="796.34,1423.18 796.34,47.2441 "></polyline>
<polyline clip-path="url(#clip232)" style="stroke:#000000; stroke-linecap:round; stroke-linejoin:round; stroke-width:2; stroke-opacity:0.1; fill:none" points="1302.06,1423.18 1302.06,47.2441 "></polyline>
<polyline clip-path="url(#clip232)" style="stroke:#000000; stroke-linecap:round; stroke-linejoin:round; stroke-width:2; stroke-opacity:0.1; fill:none" points="1807.79,1423.18 1807.79,47.2441 "></polyline>
<polyline clip-path="url(#clip232)" style="stroke:#000000; stroke-linecap:round; stroke-linejoin:round; stroke-width:2; stroke-opacity:0.1; fill:none" points="2313.51,1423.18 2313.51,47.2441 "></polyline>
<polyline clip-path="url(#clip232)" style="stroke:#000000; stroke-linecap:round; stroke-linejoin:round; stroke-width:2; stroke-opacity:0.1; fill:none" points="251.372,1287.39 2352.76,1287.39 "></polyline>
<polyline clip-path="url(#clip232)" style="stroke:#000000; stroke-linecap:round; stroke-linejoin:round; stroke-width:2; stroke-opacity:0.1; fill:none" points="251.372,853.789 2352.76,853.789 "></polyline>
<polyline clip-path="url(#clip232)" style="stroke:#000000; stroke-linecap:round; stroke-linejoin:round; stroke-width:2; stroke-opacity:0.1; fill:none" points="251.372,420.186 2352.76,420.186 "></polyline>
<polyline clip-path="url(#clip230)" style="stroke:#000000; stroke-linecap:round; stroke-linejoin:round; stroke-width:4; stroke-opacity:1; fill:none" points="251.372,1423.18 2352.76,1423.18 "></polyline>
<polyline clip-path="url(#clip230)" style="stroke:#000000; stroke-linecap:round; stroke-linejoin:round; stroke-width:4; stroke-opacity:1; fill:none" points="290.616,1423.18 290.616,1404.28 "></polyline>
<polyline clip-path="url(#clip230)" style="stroke:#000000; stroke-linecap:round; stroke-linejoin:round; stroke-width:4; stroke-opacity:1; fill:none" points="796.34,1423.18 796.34,1404.28 "></polyline>
<polyline clip-path="url(#clip230)" style="stroke:#000000; stroke-linecap:round; stroke-linejoin:round; stroke-width:4; stroke-opacity:1; fill:none" points="1302.06,1423.18 1302.06,1404.28 "></polyline>
<polyline clip-path="url(#clip230)" style="stroke:#000000; stroke-linecap:round; stroke-linejoin:round; stroke-width:4; stroke-opacity:1; fill:none" points="1807.79,1423.18 1807.79,1404.28 "></polyline>
<polyline clip-path="url(#clip230)" style="stroke:#000000; stroke-linecap:round; stroke-linejoin:round; stroke-width:4; stroke-opacity:1; fill:none" points="2313.51,1423.18 2313.51,1404.28 "></polyline>
<path clip-path="url(#clip230)" d="M290.616 1454.1 Q287.005 1454.1 285.177 1457.66 Q283.371 1461.2 283.371 1468.33 Q283.371 1475.44 285.177 1479.01 Q287.005 1482.55 290.616 1482.55 Q294.251 1482.55 296.056 1479.01 Q297.885 1475.44 297.885 1468.33 Q297.885 1461.2 296.056 1457.66 Q294.251 1454.1 290.616 1454.1 M290.616 1450.39 Q296.426 1450.39 299.482 1455 Q302.561 1459.58 302.561 1468.33 Q302.561 1477.06 299.482 1481.67 Q296.426 1486.25 290.616 1486.25 Q284.806 1486.25 281.728 1481.67 Q278.672 1477.06 278.672 1468.33 Q278.672 1459.58 281.728 1455 Q284.806 1450.39 290.616 1450.39 Z" fill="#000000" fill-rule="nonzero" fill-opacity="1"></path><path clip-path="url(#clip230)" d="M775.611 1481.64 L791.93 1481.64 L791.93 1485.58 L769.986 1485.58 L769.986 1481.64 Q772.648 1478.89 777.231 1474.26 Q781.838 1469.61 783.019 1468.27 Q785.264 1465.74 786.143 1464.01 Q787.046 1462.25 787.046 1460.56 Q787.046 1457.8 785.102 1456.07 Q783.181 1454.33 780.079 1454.33 Q777.88 1454.33 775.426 1455.09 Q772.995 1455.86 770.218 1457.41 L770.218 1452.69 Q773.042 1451.55 775.495 1450.97 Q777.949 1450.39 779.986 1450.39 Q785.356 1450.39 788.551 1453.08 Q791.745 1455.77 791.745 1460.26 Q791.745 1462.39 790.935 1464.31 Q790.148 1466.2 788.042 1468.8 Q787.463 1469.47 784.361 1472.69 Q781.259 1475.88 775.611 1481.64 Z" fill="#000000" fill-rule="nonzero" fill-opacity="1"></path><path clip-path="url(#clip230)" d="M801.792 1451.02 L820.148 1451.02 L820.148 1454.96 L806.074 1454.96 L806.074 1463.43 Q807.092 1463.08 808.111 1462.92 Q809.129 1462.73 810.148 1462.73 Q815.935 1462.73 819.315 1465.9 Q822.694 1469.08 822.694 1474.49 Q822.694 1480.07 819.222 1483.17 Q815.75 1486.25 809.43 1486.25 Q807.254 1486.25 804.986 1485.88 Q802.741 1485.51 800.333 1484.77 L800.333 1480.07 Q802.417 1481.2 804.639 1481.76 Q806.861 1482.32 809.338 1482.32 Q813.342 1482.32 815.68 1480.21 Q818.018 1478.1 818.018 1474.49 Q818.018 1470.88 815.68 1468.77 Q813.342 1466.67 809.338 1466.67 Q807.463 1466.67 805.588 1467.08 Q803.736 1467.5 801.792 1468.38 L801.792 1451.02 Z" fill="#000000" fill-rule="nonzero" fill-opacity="1"></path><path clip-path="url(#clip230)" d="M1276.76 1451.02 L1295.12 1451.02 L1295.12 1454.96 L1281.05 1454.96 L1281.05 1463.43 Q1282.06 1463.08 1283.08 1462.92 Q1284.1 1462.73 1285.12 1462.73 Q1290.91 1462.73 1294.29 1465.9 Q1297.67 1469.08 1297.67 1474.49 Q1297.67 1480.07 1294.19 1483.17 Q1290.72 1486.25 1284.4 1486.25 Q1282.23 1486.25 1279.96 1485.88 Q1277.71 1485.51 1275.3 1484.77 L1275.3 1480.07 Q1277.39 1481.2 1279.61 1481.76 Q1281.83 1482.32 1284.31 1482.32 Q1288.31 1482.32 1290.65 1480.21 Q1292.99 1478.1 1292.99 1474.49 Q1292.99 1470.88 1290.65 1468.77 Q1288.31 1466.67 1284.31 1466.67 Q1282.43 1466.67 1280.56 1467.08 Q1278.71 1467.5 1276.76 1468.38 L1276.76 1451.02 Z" fill="#000000" fill-rule="nonzero" fill-opacity="1"></path><path clip-path="url(#clip230)" d="M1316.88 1454.1 Q1313.27 1454.1 1311.44 1457.66 Q1309.63 1461.2 1309.63 1468.33 Q1309.63 1475.44 1311.44 1479.01 Q1313.27 1482.55 1316.88 1482.55 Q1320.51 1482.55 1322.32 1479.01 Q1324.15 1475.44 1324.15 1468.33 Q1324.15 1461.2 1322.32 1457.66 Q1320.51 1454.1 1316.88 1454.1 M1316.88 1450.39 Q1322.69 1450.39 1325.74 1455 Q1328.82 1459.58 1328.82 1468.33 Q1328.82 1477.06 1325.74 1481.67 Q1322.69 1486.25 1316.88 1486.25 Q1311.07 1486.25 1307.99 1481.67 Q1304.93 1477.06 1304.93 1468.33 Q1304.93 1459.58 1307.99 1455 Q1311.07 1450.39 1316.88 1450.39 Z" fill="#000000" fill-rule="nonzero" fill-opacity="1"></path><path clip-path="url(#clip230)" d="M1781.64 1451.02 L1803.86 1451.02 L1803.86 1453.01 L1791.32 1485.58 L1786.43 1485.58 L1798.24 1454.96 L1781.64 1454.96 L1781.64 1451.02 Z" fill="#000000" fill-rule="nonzero" fill-opacity="1"></path><path clip-path="url(#clip230)" d="M1813.03 1451.02 L1831.39 1451.02 L1831.39 1454.96 L1817.31 1454.96 L1817.31 1463.43 Q1818.33 1463.08 1819.35 1462.92 Q1820.37 1462.73 1821.39 1462.73 Q1827.17 1462.73 1830.55 1465.9 Q1833.93 1469.08 1833.93 1474.49 Q1833.93 1480.07 1830.46 1483.17 Q1826.99 1486.25 1820.67 1486.25 Q1818.49 1486.25 1816.23 1485.88 Q1813.98 1485.51 1811.57 1484.77 L1811.57 1480.07 Q1813.66 1481.2 1815.88 1481.76 Q1818.1 1482.32 1820.58 1482.32 Q1824.58 1482.32 1826.92 1480.21 Q1829.26 1478.1 1829.26 1474.49 Q1829.26 1470.88 1826.92 1468.77 Q1824.58 1466.67 1820.58 1466.67 Q1818.7 1466.67 1816.83 1467.08 Q1814.98 1467.5 1813.03 1468.38 L1813.03 1451.02 Z" fill="#000000" fill-rule="nonzero" fill-opacity="1"></path><path clip-path="url(#clip230)" d="M2273.12 1481.64 L2280.76 1481.64 L2280.76 1455.28 L2272.45 1456.95 L2272.45 1452.69 L2280.71 1451.02 L2285.39 1451.02 L2285.39 1481.64 L2293.03 1481.64 L2293.03 1485.58 L2273.12 1485.58 L2273.12 1481.64 Z" fill="#000000" fill-rule="nonzero" fill-opacity="1"></path><path clip-path="url(#clip230)" d="M2312.47 1454.1 Q2308.86 1454.1 2307.03 1457.66 Q2305.22 1461.2 2305.22 1468.33 Q2305.22 1475.44 2307.03 1479.01 Q2308.86 1482.55 2312.47 1482.55 Q2316.1 1482.55 2317.91 1479.01 Q2319.74 1475.44 2319.74 1468.33 Q2319.74 1461.2 2317.91 1457.66 Q2316.1 1454.1 2312.47 1454.1 M2312.47 1450.39 Q2318.28 1450.39 2321.34 1455 Q2324.41 1459.58 2324.41 1468.33 Q2324.41 1477.06 2321.34 1481.67 Q2318.28 1486.25 2312.47 1486.25 Q2306.66 1486.25 2303.58 1481.67 Q2300.53 1477.06 2300.53 1468.33 Q2300.53 1459.58 2303.58 1455 Q2306.66 1450.39 2312.47 1450.39 Z" fill="#000000" fill-rule="nonzero" fill-opacity="1"></path><path clip-path="url(#clip230)" d="M2342.63 1454.1 Q2339.02 1454.1 2337.19 1457.66 Q2335.39 1461.2 2335.39 1468.33 Q2335.39 1475.44 2337.19 1479.01 Q2339.02 1482.55 2342.63 1482.55 Q2346.27 1482.55 2348.07 1479.01 Q2349.9 1475.44 2349.9 1468.33 Q2349.9 1461.2 2348.07 1457.66 Q2346.27 1454.1 2342.63 1454.1 M2342.63 1450.39 Q2348.44 1450.39 2351.5 1455 Q2354.58 1459.58 2354.58 1468.33 Q2354.58 1477.06 2351.5 1481.67 Q2348.44 1486.25 2342.63 1486.25 Q2336.82 1486.25 2333.74 1481.67 Q2330.69 1477.06 2330.69 1468.33 Q2330.69 1459.58 2333.74 1455 Q2336.82 1450.39 2342.63 1450.39 Z" fill="#000000" fill-rule="nonzero" fill-opacity="1"></path><path clip-path="url(#clip230)" d="M964.141 1550.12 Q957.043 1550.12 954.305 1551.75 Q951.568 1553.37 951.568 1557.29 Q951.568 1560.4 953.605 1562.25 Q955.674 1564.07 959.207 1564.07 Q964.077 1564.07 967.005 1560.63 Q969.965 1557.16 969.965 1551.43 L969.965 1550.12 L964.141 1550.12 M975.822 1547.71 L975.822 1568.04 L969.965 1568.04 L969.965 1562.63 Q967.96 1565.88 964.968 1567.44 Q961.976 1568.97 957.647 1568.97 Q952.173 1568.97 948.926 1565.91 Q945.712 1562.82 945.712 1557.67 Q945.712 1551.65 949.722 1548.6 Q953.764 1545.54 961.753 1545.54 L969.965 1545.54 L969.965 1544.97 Q969.965 1540.93 967.292 1538.73 Q964.65 1536.5 959.844 1536.5 Q956.788 1536.5 953.892 1537.23 Q950.995 1537.97 948.322 1539.43 L948.322 1534.02 Q951.536 1532.78 954.56 1532.17 Q957.584 1531.54 960.448 1531.54 Q968.183 1531.54 972.002 1535.55 Q975.822 1539.56 975.822 1547.71 Z" fill="#000000" fill-rule="nonzero" fill-opacity="1"></path><path clip-path="url(#clip230)" d="M993.55 1562.7 L993.55 1581.6 L987.662 1581.6 L987.662 1532.4 L993.55 1532.4 L993.55 1537.81 Q995.396 1534.62 998.197 1533.1 Q1001.03 1531.54 1004.94 1531.54 Q1011.44 1531.54 1015.48 1536.69 Q1019.55 1541.85 1019.55 1550.25 Q1019.55 1558.65 1015.48 1563.81 Q1011.44 1568.97 1004.94 1568.97 Q1001.03 1568.97 998.197 1567.44 Q995.396 1565.88 993.55 1562.7 M1013.47 1550.25 Q1013.47 1543.79 1010.8 1540.13 Q1008.16 1536.44 1003.51 1536.44 Q998.865 1536.44 996.192 1540.13 Q993.55 1543.79 993.55 1550.25 Q993.55 1556.71 996.192 1560.4 Q998.865 1564.07 1003.51 1564.07 Q1008.16 1564.07 1010.8 1560.4 Q1013.47 1556.71 1013.47 1550.25 Z" fill="#000000" fill-rule="nonzero" fill-opacity="1"></path><path clip-path="url(#clip230)" d="M1034.93 1562.7 L1034.93 1581.6 L1029.04 1581.6 L1029.04 1532.4 L1034.93 1532.4 L1034.93 1537.81 Q1036.77 1534.62 1039.57 1533.1 Q1042.41 1531.54 1046.32 1531.54 Q1052.81 1531.54 1056.86 1536.69 Q1060.93 1541.85 1060.93 1550.25 Q1060.93 1558.65 1056.86 1563.81 Q1052.81 1568.97 1046.32 1568.97 Q1042.41 1568.97 1039.57 1567.44 Q1036.77 1565.88 1034.93 1562.7 M1054.85 1550.25 Q1054.85 1543.79 1052.18 1540.13 Q1049.54 1536.44 1044.89 1536.44 Q1040.24 1536.44 1037.57 1540.13 Q1034.93 1543.79 1034.93 1550.25 Q1034.93 1556.71 1037.57 1560.4 Q1040.24 1564.07 1044.89 1564.07 Q1049.54 1564.07 1052.18 1560.4 Q1054.85 1556.71 1054.85 1550.25 Z" fill="#000000" fill-rule="nonzero" fill-opacity="1"></path><path clip-path="url(#clip230)" d="M1091.3 1537.87 Q1090.31 1537.3 1089.13 1537.04 Q1087.99 1536.76 1086.58 1536.76 Q1081.62 1536.76 1078.95 1540 Q1076.3 1543.22 1076.3 1549.27 L1076.3 1568.04 L1070.42 1568.04 L1070.42 1532.4 L1076.3 1532.4 L1076.3 1537.93 Q1078.15 1534.69 1081.11 1533.13 Q1084.07 1531.54 1088.3 1531.54 Q1088.91 1531.54 1089.64 1531.63 Q1090.37 1531.7 1091.26 1531.85 L1091.3 1537.87 Z" fill="#000000" fill-rule="nonzero" fill-opacity="1"></path><path clip-path="url(#clip230)" d="M1109.82 1536.5 Q1105.11 1536.5 1102.37 1540.19 Q1099.63 1543.85 1099.63 1550.25 Q1099.63 1556.65 1102.34 1560.34 Q1105.08 1564 1109.82 1564 Q1114.5 1564 1117.24 1560.31 Q1119.97 1556.62 1119.97 1550.25 Q1119.97 1543.92 1117.24 1540.23 Q1114.5 1536.5 1109.82 1536.5 M1109.82 1531.54 Q1117.46 1531.54 1121.82 1536.5 Q1126.18 1541.47 1126.18 1550.25 Q1126.18 1559 1121.82 1564 Q1117.46 1568.97 1109.82 1568.97 Q1102.15 1568.97 1097.79 1564 Q1093.46 1559 1093.46 1550.25 Q1093.46 1541.47 1097.79 1536.5 Q1102.15 1531.54 1109.82 1531.54 Z" fill="#000000" fill-rule="nonzero" fill-opacity="1"></path><path clip-path="url(#clip230)" d="M1163.51 1532.4 L1150.62 1549.74 L1164.18 1568.04 L1157.28 1568.04 L1146.9 1554.04 L1136.52 1568.04 L1129.62 1568.04 L1143.46 1549.39 L1130.79 1532.4 L1137.7 1532.4 L1147.15 1545.1 L1156.61 1532.4 L1163.51 1532.4 Z" fill="#000000" fill-rule="nonzero" fill-opacity="1"></path><path clip-path="url(#clip230)" d="M1172.46 1532.4 L1178.31 1532.4 L1178.31 1568.04 L1172.46 1568.04 L1172.46 1532.4 M1172.46 1518.52 L1178.31 1518.52 L1178.31 1525.93 L1172.46 1525.93 L1172.46 1518.52 Z" fill="#000000" fill-rule="nonzero" fill-opacity="1"></path><path clip-path="url(#clip230)" d="M1218.32 1539.24 Q1220.52 1535.29 1223.57 1533.41 Q1226.63 1531.54 1230.77 1531.54 Q1236.34 1531.54 1239.36 1535.45 Q1242.39 1539.33 1242.39 1546.53 L1242.39 1568.04 L1236.5 1568.04 L1236.5 1546.72 Q1236.5 1541.59 1234.68 1539.11 Q1232.87 1536.63 1229.14 1536.63 Q1224.59 1536.63 1221.95 1539.65 Q1219.31 1542.68 1219.31 1547.9 L1219.31 1568.04 L1213.42 1568.04 L1213.42 1546.72 Q1213.42 1541.56 1211.61 1539.11 Q1209.79 1536.63 1206.01 1536.63 Q1201.52 1536.63 1198.88 1539.68 Q1196.23 1542.71 1196.23 1547.9 L1196.23 1568.04 L1190.35 1568.04 L1190.35 1532.4 L1196.23 1532.4 L1196.23 1537.93 Q1198.24 1534.66 1201.04 1533.1 Q1203.84 1531.54 1207.69 1531.54 Q1211.58 1531.54 1214.28 1533.51 Q1217.02 1535.48 1218.32 1539.24 Z" fill="#000000" fill-rule="nonzero" fill-opacity="1"></path><path clip-path="url(#clip230)" d="M1270.27 1550.12 Q1263.17 1550.12 1260.43 1551.75 Q1257.7 1553.37 1257.7 1557.29 Q1257.7 1560.4 1259.73 1562.25 Q1261.8 1564.07 1265.33 1564.07 Q1270.2 1564.07 1273.13 1560.63 Q1276.09 1557.16 1276.09 1551.43 L1276.09 1550.12 L1270.27 1550.12 M1281.95 1547.71 L1281.95 1568.04 L1276.09 1568.04 L1276.09 1562.63 Q1274.09 1565.88 1271.09 1567.44 Q1268.1 1568.97 1263.77 1568.97 Q1258.3 1568.97 1255.05 1565.91 Q1251.84 1562.82 1251.84 1557.67 Q1251.84 1551.65 1255.85 1548.6 Q1259.89 1545.54 1267.88 1545.54 L1276.09 1545.54 L1276.09 1544.97 Q1276.09 1540.93 1273.42 1538.73 Q1270.78 1536.5 1265.97 1536.5 Q1262.91 1536.5 1260.02 1537.23 Q1257.12 1537.97 1254.45 1539.43 L1254.45 1534.02 Q1257.66 1532.78 1260.69 1532.17 Q1263.71 1531.54 1266.58 1531.54 Q1274.31 1531.54 1278.13 1535.55 Q1281.95 1539.56 1281.95 1547.71 Z" fill="#000000" fill-rule="nonzero" fill-opacity="1"></path><path clip-path="url(#clip230)" d="M1299.8 1522.27 L1299.8 1532.4 L1311.87 1532.4 L1311.87 1536.95 L1299.8 1536.95 L1299.8 1556.3 Q1299.8 1560.66 1300.98 1561.9 Q1302.19 1563.14 1305.85 1563.14 L1311.87 1563.14 L1311.87 1568.04 L1305.85 1568.04 Q1299.07 1568.04 1296.49 1565.53 Q1293.92 1562.98 1293.92 1556.3 L1293.92 1536.95 L1289.62 1536.95 L1289.62 1532.4 L1293.92 1532.4 L1293.92 1522.27 L1299.8 1522.27 Z" fill="#000000" fill-rule="nonzero" fill-opacity="1"></path><path clip-path="url(#clip230)" d="M1319.57 1532.4 L1325.43 1532.4 L1325.43 1568.04 L1319.57 1568.04 L1319.57 1532.4 M1319.57 1518.52 L1325.43 1518.52 L1325.43 1525.93 L1319.57 1525.93 L1319.57 1518.52 Z" fill="#000000" fill-rule="nonzero" fill-opacity="1"></path><path clip-path="url(#clip230)" d="M1351.49 1536.5 Q1346.78 1536.5 1344.05 1540.19 Q1341.31 1543.85 1341.31 1550.25 Q1341.31 1556.65 1344.01 1560.34 Q1346.75 1564 1351.49 1564 Q1356.17 1564 1358.91 1560.31 Q1361.65 1556.62 1361.65 1550.25 Q1361.65 1543.92 1358.91 1540.23 Q1356.17 1536.5 1351.49 1536.5 M1351.49 1531.54 Q1359.13 1531.54 1363.49 1536.5 Q1367.85 1541.47 1367.85 1550.25 Q1367.85 1559 1363.49 1564 Q1359.13 1568.97 1351.49 1568.97 Q1343.82 1568.97 1339.46 1564 Q1335.13 1559 1335.13 1550.25 Q1335.13 1541.47 1339.46 1536.5 Q1343.82 1531.54 1351.49 1531.54 Z" fill="#000000" fill-rule="nonzero" fill-opacity="1"></path><path clip-path="url(#clip230)" d="M1407.19 1546.53 L1407.19 1568.04 L1401.34 1568.04 L1401.34 1546.72 Q1401.34 1541.66 1399.36 1539.14 Q1397.39 1536.63 1393.44 1536.63 Q1388.7 1536.63 1385.96 1539.65 Q1383.23 1542.68 1383.23 1547.9 L1383.23 1568.04 L1377.34 1568.04 L1377.34 1532.4 L1383.23 1532.4 L1383.23 1537.93 Q1385.33 1534.72 1388.16 1533.13 Q1391.02 1531.54 1394.75 1531.54 Q1400.89 1531.54 1404.04 1535.36 Q1407.19 1539.14 1407.19 1546.53 Z" fill="#000000" fill-rule="nonzero" fill-opacity="1"></path><path clip-path="url(#clip230)" d="M1463.05 1537.81 L1463.05 1518.52 L1468.91 1518.52 L1468.91 1568.04 L1463.05 1568.04 L1463.05 1562.7 Q1461.21 1565.88 1458.37 1567.44 Q1455.57 1568.97 1451.63 1568.97 Q1445.17 1568.97 1441.09 1563.81 Q1437.05 1558.65 1437.05 1550.25 Q1437.05 1541.85 1441.09 1536.69 Q1445.17 1531.54 1451.63 1531.54 Q1455.57 1531.54 1458.37 1533.1 Q1461.21 1534.62 1463.05 1537.81 M1443.1 1550.25 Q1443.1 1556.71 1445.74 1560.4 Q1448.41 1564.07 1453.06 1564.07 Q1457.71 1564.07 1460.38 1560.4 Q1463.05 1556.71 1463.05 1550.25 Q1463.05 1543.79 1460.38 1540.13 Q1457.71 1536.44 1453.06 1536.44 Q1448.41 1536.44 1445.74 1540.13 Q1443.1 1543.79 1443.1 1550.25 Z" fill="#000000" fill-rule="nonzero" fill-opacity="1"></path><path clip-path="url(#clip230)" d="M1511.46 1548.76 L1511.46 1551.62 L1484.54 1551.62 Q1484.92 1557.67 1488.17 1560.85 Q1491.44 1564 1497.27 1564 Q1500.64 1564 1503.79 1563.17 Q1506.98 1562.35 1510.1 1560.69 L1510.1 1566.23 Q1506.94 1567.57 1503.63 1568.27 Q1500.32 1568.97 1496.92 1568.97 Q1488.39 1568.97 1483.39 1564 Q1478.43 1559.04 1478.43 1550.57 Q1478.43 1541.82 1483.14 1536.69 Q1487.88 1531.54 1495.9 1531.54 Q1503.09 1531.54 1507.26 1536.18 Q1511.46 1540.8 1511.46 1548.76 M1505.61 1547.04 Q1505.54 1542.23 1502.9 1539.37 Q1500.29 1536.5 1495.96 1536.5 Q1491.06 1536.5 1488.1 1539.27 Q1485.17 1542.04 1484.73 1547.07 L1505.61 1547.04 Z" fill="#000000" fill-rule="nonzero" fill-opacity="1"></path><path clip-path="url(#clip230)" d="M1544.53 1549.81 Q1544.53 1543.44 1541.89 1539.94 Q1539.28 1536.44 1534.54 1536.44 Q1529.83 1536.44 1527.19 1539.94 Q1524.58 1543.44 1524.58 1549.81 Q1524.58 1556.14 1527.19 1559.64 Q1529.83 1563.14 1534.54 1563.14 Q1539.28 1563.14 1541.89 1559.64 Q1544.53 1556.14 1544.53 1549.81 M1550.39 1563.62 Q1550.39 1572.72 1546.35 1577.15 Q1542.31 1581.6 1533.97 1581.6 Q1530.88 1581.6 1528.14 1581.13 Q1525.4 1580.68 1522.83 1579.72 L1522.83 1574.03 Q1525.4 1575.43 1527.92 1576.1 Q1530.43 1576.76 1533.04 1576.76 Q1538.8 1576.76 1541.67 1573.74 Q1544.53 1570.75 1544.53 1564.67 L1544.53 1561.77 Q1542.72 1564.92 1539.89 1566.48 Q1537.05 1568.04 1533.11 1568.04 Q1526.55 1568.04 1522.54 1563.05 Q1518.53 1558.05 1518.53 1549.81 Q1518.53 1541.53 1522.54 1536.53 Q1526.55 1531.54 1533.11 1531.54 Q1537.05 1531.54 1539.89 1533.1 Q1542.72 1534.66 1544.53 1537.81 L1544.53 1532.4 L1550.39 1532.4 L1550.39 1563.62 Z" fill="#000000" fill-rule="nonzero" fill-opacity="1"></path><path clip-path="url(#clip230)" d="M1583.11 1537.87 Q1582.12 1537.3 1580.95 1537.04 Q1579.8 1536.76 1578.4 1536.76 Q1573.43 1536.76 1570.76 1540 Q1568.12 1543.22 1568.12 1549.27 L1568.12 1568.04 L1562.23 1568.04 L1562.23 1532.4 L1568.12 1532.4 L1568.12 1537.93 Q1569.96 1534.69 1572.92 1533.13 Q1575.88 1531.54 1580.12 1531.54 Q1580.72 1531.54 1581.45 1531.63 Q1582.19 1531.7 1583.08 1531.85 L1583.11 1537.87 Z" fill="#000000" fill-rule="nonzero" fill-opacity="1"></path><path clip-path="url(#clip230)" d="M1618.31 1548.76 L1618.31 1551.62 L1591.39 1551.62 Q1591.77 1557.67 1595.01 1560.85 Q1598.29 1564 1604.12 1564 Q1607.49 1564 1610.64 1563.17 Q1613.82 1562.35 1616.94 1560.69 L1616.94 1566.23 Q1613.79 1567.57 1610.48 1568.27 Q1607.17 1568.97 1603.77 1568.97 Q1595.24 1568.97 1590.24 1564 Q1585.27 1559.04 1585.27 1550.57 Q1585.27 1541.82 1589.98 1536.69 Q1594.73 1531.54 1602.75 1531.54 Q1609.94 1531.54 1614.11 1536.18 Q1618.31 1540.8 1618.31 1548.76 M1612.46 1547.04 Q1612.39 1542.23 1609.75 1539.37 Q1607.14 1536.5 1602.81 1536.5 Q1597.91 1536.5 1594.95 1539.27 Q1592.02 1542.04 1591.58 1547.07 L1612.46 1547.04 Z" fill="#000000" fill-rule="nonzero" fill-opacity="1"></path><path clip-path="url(#clip230)" d="M1658.42 1548.76 L1658.42 1551.62 L1631.49 1551.62 Q1631.87 1557.67 1635.12 1560.85 Q1638.4 1564 1644.22 1564 Q1647.59 1564 1650.75 1563.17 Q1653.93 1562.35 1657.05 1560.69 L1657.05 1566.23 Q1653.9 1567.57 1650.59 1568.27 Q1647.28 1568.97 1643.87 1568.97 Q1635.34 1568.97 1630.34 1564 Q1625.38 1559.04 1625.38 1550.57 Q1625.38 1541.82 1630.09 1536.69 Q1634.83 1531.54 1642.85 1531.54 Q1650.05 1531.54 1654.21 1536.18 Q1658.42 1540.8 1658.42 1548.76 M1652.56 1547.04 Q1652.5 1542.23 1649.85 1539.37 Q1647.24 1536.5 1642.92 1536.5 Q1638.01 1536.5 1635.05 1539.27 Q1632.13 1542.04 1631.68 1547.07 L1652.56 1547.04 Z" fill="#000000" fill-rule="nonzero" fill-opacity="1"></path><polyline clip-path="url(#clip230)" style="stroke:#000000; stroke-linecap:round; stroke-linejoin:round; stroke-width:4; stroke-opacity:1; fill:none" points="251.372,1423.18 251.372,47.2441 "></polyline>
<polyline clip-path="url(#clip230)" style="stroke:#000000; stroke-linecap:round; stroke-linejoin:round; stroke-width:4; stroke-opacity:1; fill:none" points="251.372,1287.39 270.27,1287.39 "></polyline>
<polyline clip-path="url(#clip230)" style="stroke:#000000; stroke-linecap:round; stroke-linejoin:round; stroke-width:4; stroke-opacity:1; fill:none" points="251.372,853.789 270.27,853.789 "></polyline>
<polyline clip-path="url(#clip230)" style="stroke:#000000; stroke-linecap:round; stroke-linejoin:round; stroke-width:4; stroke-opacity:1; fill:none" points="251.372,420.186 270.27,420.186 "></polyline>
<path clip-path="url(#clip230)" d="M115.232 1307.18 L122.871 1307.18 L122.871 1280.82 L114.561 1282.49 L114.561 1278.23 L122.825 1276.56 L127.501 1276.56 L127.501 1307.18 L135.14 1307.18 L135.14 1311.12 L115.232 1311.12 L115.232 1307.18 Z" fill="#000000" fill-rule="nonzero" fill-opacity="1"></path><path clip-path="url(#clip230)" d="M154.584 1279.64 Q150.973 1279.64 149.144 1283.2 Q147.339 1286.75 147.339 1293.87 Q147.339 1300.98 149.144 1304.55 Q150.973 1308.09 154.584 1308.09 Q158.218 1308.09 160.024 1304.55 Q161.852 1300.98 161.852 1293.87 Q161.852 1286.75 160.024 1283.2 Q158.218 1279.64 154.584 1279.64 M154.584 1275.93 Q160.394 1275.93 163.45 1280.54 Q166.528 1285.12 166.528 1293.87 Q166.528 1302.6 163.45 1307.21 Q160.394 1311.79 154.584 1311.79 Q148.774 1311.79 145.695 1307.21 Q142.64 1302.6 142.64 1293.87 Q142.64 1285.12 145.695 1280.54 Q148.774 1275.93 154.584 1275.93 Z" fill="#000000" fill-rule="nonzero" fill-opacity="1"></path><path clip-path="url(#clip230)" d="M166.528 1270.04 L190.64 1270.04 L190.64 1273.23 L166.528 1273.23 L166.528 1270.04 Z" fill="#000000" fill-rule="nonzero" fill-opacity="1"></path><path clip-path="url(#clip230)" d="M202.113 1280.51 L215.372 1280.51 L215.372 1283.71 L197.542 1283.71 L197.542 1280.51 Q199.705 1278.27 203.429 1274.51 Q207.172 1270.73 208.131 1269.64 Q209.956 1267.59 210.67 1266.18 Q211.404 1264.75 211.404 1263.38 Q211.404 1261.14 209.824 1259.73 Q208.263 1258.32 205.743 1258.32 Q203.956 1258.32 201.962 1258.94 Q199.987 1259.56 197.73 1260.82 L197.73 1256.98 Q200.025 1256.06 202.019 1255.59 Q204.012 1255.12 205.667 1255.12 Q210.031 1255.12 212.626 1257.3 Q215.222 1259.49 215.222 1263.13 Q215.222 1264.86 214.563 1266.43 Q213.924 1267.97 212.212 1270.07 Q211.742 1270.62 209.222 1273.23 Q206.702 1275.83 202.113 1280.51 Z" fill="#000000" fill-rule="nonzero" fill-opacity="1"></path><path clip-path="url(#clip230)" d="M114.931 873.582 L122.57 873.582 L122.57 847.216 L114.26 848.883 L114.26 844.623 L122.524 842.957 L127.2 842.957 L127.2 873.582 L134.839 873.582 L134.839 877.517 L114.931 877.517 L114.931 873.582 Z" fill="#000000" fill-rule="nonzero" fill-opacity="1"></path><path clip-path="url(#clip230)" d="M154.283 846.035 Q150.672 846.035 148.843 849.6 Q147.038 853.142 147.038 860.271 Q147.038 867.378 148.843 870.943 Q150.672 874.484 154.283 874.484 Q157.917 874.484 159.723 870.943 Q161.552 867.378 161.552 860.271 Q161.552 853.142 159.723 849.6 Q157.917 846.035 154.283 846.035 M154.283 842.332 Q160.093 842.332 163.149 846.938 Q166.227 851.521 166.227 860.271 Q166.227 868.998 163.149 873.605 Q160.093 878.188 154.283 878.188 Q148.473 878.188 145.394 873.605 Q142.339 868.998 142.339 860.271 Q142.339 851.521 145.394 846.938 Q148.473 842.332 154.283 842.332 Z" fill="#000000" fill-rule="nonzero" fill-opacity="1"></path><path clip-path="url(#clip230)" d="M166.227 836.433 L190.339 836.433 L190.339 839.63 L166.227 839.63 L166.227 836.433 Z" fill="#000000" fill-rule="nonzero" fill-opacity="1"></path><path clip-path="url(#clip230)" d="M199.197 846.909 L205.404 846.909 L205.404 825.487 L198.652 826.841 L198.652 823.38 L205.366 822.026 L209.166 822.026 L209.166 846.909 L215.372 846.909 L215.372 850.106 L199.197 850.106 L199.197 846.909 Z" fill="#000000" fill-rule="nonzero" fill-opacity="1"></path><path clip-path="url(#clip230)" d="M144.667 439.978 L152.305 439.978 L152.305 413.613 L143.995 415.279 L143.995 411.02 L152.259 409.353 L156.935 409.353 L156.935 439.978 L164.574 439.978 L164.574 443.913 L144.667 443.913 L144.667 439.978 Z" fill="#000000" fill-rule="nonzero" fill-opacity="1"></path><path clip-path="url(#clip230)" d="M184.018 412.432 Q180.407 412.432 178.578 415.997 Q176.773 419.539 176.773 426.668 Q176.773 433.775 178.578 437.339 Q180.407 440.881 184.018 440.881 Q187.652 440.881 189.458 437.339 Q191.287 433.775 191.287 426.668 Q191.287 419.539 189.458 415.997 Q187.652 412.432 184.018 412.432 M184.018 408.728 Q189.828 408.728 192.884 413.335 Q195.963 417.918 195.963 426.668 Q195.963 435.395 192.884 440.001 Q189.828 444.585 184.018 444.585 Q178.208 444.585 175.129 440.001 Q172.074 435.395 172.074 426.668 Q172.074 417.918 175.129 413.335 Q178.208 408.728 184.018 408.728 Z" fill="#000000" fill-rule="nonzero" fill-opacity="1"></path><path clip-path="url(#clip230)" d="M205.667 390.925 Q202.733 390.925 201.248 393.821 Q199.781 396.698 199.781 402.491 Q199.781 408.265 201.248 411.162 Q202.733 414.039 205.667 414.039 Q208.62 414.039 210.087 411.162 Q211.573 408.265 211.573 402.491 Q211.573 396.698 210.087 393.821 Q208.62 390.925 205.667 390.925 M205.667 387.915 Q210.388 387.915 212.871 391.658 Q215.372 395.382 215.372 402.491 Q215.372 409.582 212.871 413.325 Q210.388 417.048 205.667 417.048 Q200.947 417.048 198.445 413.325 Q195.963 409.582 195.963 402.491 Q195.963 395.382 198.445 391.658 Q200.947 387.915 205.667 387.915 Z" fill="#000000" fill-rule="nonzero" fill-opacity="1"></path><path clip-path="url(#clip230)" d="M16.4842 800.938 L16.4842 791.358 L48.8219 779.231 L16.4842 767.041 L16.4842 757.46 L64.0042 757.46 L64.0042 763.73 L22.277 763.73 L54.8694 775.984 L54.8694 782.446 L22.277 794.699 L64.0042 794.699 L64.0042 800.938 L16.4842 800.938 Z" fill="#000000" fill-rule="nonzero" fill-opacity="1"></path><path clip-path="url(#clip230)" d="M22.818 728.814 L46.4666 737.535 L46.4666 720.062 L22.818 728.814 M16.4842 732.443 L16.4842 725.154 L64.0042 707.044 L64.0042 713.728 L51.8138 718.056 L51.8138 739.477 L64.0042 743.806 L64.0042 750.585 L16.4842 732.443 Z" fill="#000000" fill-rule="nonzero" fill-opacity="1"></path><path clip-path="url(#clip230)" d="M16.4842 700.105 L16.4842 670.059 L21.895 670.059 L21.895 693.676 L35.9632 693.676 L35.9632 671.046 L41.3741 671.046 L41.3741 693.676 L58.5933 693.676 L58.5933 669.486 L64.0042 669.486 L64.0042 700.105 L16.4842 700.105 Z" fill="#000000" fill-rule="nonzero" fill-opacity="1"></path><polyline clip-path="url(#clip232)" style="stroke:#009af9; stroke-linecap:round; stroke-linejoin:round; stroke-width:4; stroke-opacity:1; fill:none" points="310.845,86.1857 351.303,270.253 391.761,381.202 432.219,409.387 472.677,458.959 513.135,491.962 553.593,527.866 594.051,556.554 634.509,589.13 674.966,624.83 715.424,659.214 755.882,697.874 796.34,726.471 836.798,752.291 877.256,768.612 917.714,779.934 958.172,785.454 998.63,792.097 1039.09,798.51 1079.55,806.037 1120,814.82 1160.46,827.285 1200.92,840.101 1241.38,854.741 1281.84,869.618 1322.29,884.323 1362.75,897.146 1403.21,909.997 1443.67,920.395 1484.12,929.909 1524.58,937.782 1565.04,946.092 1605.5,954.231 1645.96,962.653 1686.41,969.835 1726.87,977.331 1767.33,984.266 1807.79,991.865 1848.25,998.153 1888.7,1004.37 1929.16,1009.42 1969.62,1014.38 2010.08,1018.92 2050.54,1023.29 2090.99,1027.34 2131.45,1031.63 2171.91,1035.45 2212.37,1039.26 2252.82,1042.91 2293.28,1047.27 "></polyline>
<polyline clip-path="url(#clip232)" style="stroke:#e26f46; stroke-linecap:round; stroke-linejoin:round; stroke-width:4; stroke-opacity:1; fill:none" points="310.845,341.891 351.303,684.827 391.761,784.855 432.219,857.041 472.677,908.611 513.135,953.026 553.593,992.432 594.051,1021.73 634.509,1046.97 674.966,1069.07 715.424,1088.45 755.882,1106.47 796.34,1122.17 836.798,1136.93 877.256,1150.7 917.714,1163.27 958.172,1174.44 998.63,1185.49 1039.09,1196.2 1079.55,1206.03 1120,1215.04 1160.46,1225.51 1200.92,1234.65 1241.38,1242.86 1281.84,1250.3 1322.29,1257.35 1362.75,1264.42 1403.21,1271.78 1443.67,1279.77 1484.12,1285.96 1524.58,1292.24 1565.04,1298.59 1605.5,1304.97 1645.96,1311.33 1686.41,1317.04 1726.87,1321.83 1767.33,1327.05 1807.79,1331.83 1848.25,1337.82 1888.7,1342.47 1929.16,1347.04 1969.62,1352.22 2010.08,1355.93 2050.54,1359.81 2090.99,1364.27 2131.45,1368.65 2171.91,1372.48 2212.37,1376.56 2252.82,1380.12 2293.28,1384.24 "></polyline>
<polyline clip-path="url(#clip232)" style="stroke:#3da44d; stroke-linecap:round; stroke-linejoin:round; stroke-width:4; stroke-opacity:1; fill:none" points="310.845,187.535 351.303,527.041 391.761,640.51 432.219,708.222 472.677,761.352 513.135,816.101 553.593,848.497 594.051,871.974 634.509,896.717 674.966,921.12 715.424,943.134 755.882,964.411 796.34,982.979 836.798,1000.93 877.256,1015.38 917.714,1028.52 958.172,1040.19 998.63,1050.46 1039.09,1061.09 1079.55,1071.09 1120,1080.9 1160.46,1090.32 1200.92,1098.97 1241.38,1106.99 1281.84,1114.69 1322.29,1122.19 1362.75,1129.21 1403.21,1136.2 1443.67,1143.47 1484.12,1149.87 1524.58,1155.7 1565.04,1162.18 1605.5,1168.18 1645.96,1173.27 1686.41,1178.46 1726.87,1184.36 1767.33,1189.5 1807.79,1194.34 1848.25,1199.2 1888.7,1203.47 1929.16,1208.07 1969.62,1212.62 2010.08,1217.65 2050.54,1222.78 2090.99,1227.56 2131.45,1231.78 2171.91,1235.56 2212.37,1239.55 2252.82,1243.43 2293.28,1246.84 "></polyline>
<path clip-path="url(#clip230)" d="M1905.81 300.469 L2282.71 300.469 L2282.71 93.1086 L1905.81 93.1086  Z" fill="#ffffff" fill-rule="evenodd" fill-opacity="1"></path>
<polyline clip-path="url(#clip230)" style="stroke:#000000; stroke-linecap:round; stroke-linejoin:round; stroke-width:4; stroke-opacity:1; fill:none" points="1905.81,300.469 2282.71,300.469 2282.71,93.1086 1905.81,93.1086 1905.81,300.469 "></polyline>
<polyline clip-path="url(#clip230)" style="stroke:#009af9; stroke-linecap:round; stroke-linejoin:round; stroke-width:4; stroke-opacity:1; fill:none" points="1929.16,144.949 2069.25,144.949 "></polyline>
<path clip-path="url(#clip230)" d="M2093.18 136.303 L2113.41 136.303 L2113.41 140.192 L2097.39 158.826 L2113.41 158.826 L2113.41 162.229 L2092.6 162.229 L2092.6 158.34 L2108.62 139.706 L2093.18 139.706 L2093.18 136.303 Z" fill="#000000" fill-rule="nonzero" fill-opacity="1"></path><path clip-path="url(#clip230)" d="M2129.96 139.289 Q2126.54 139.289 2124.55 141.974 Q2122.56 144.636 2122.56 149.289 Q2122.56 153.942 2124.52 156.627 Q2126.51 159.289 2129.96 159.289 Q2133.37 159.289 2135.36 156.604 Q2137.35 153.918 2137.35 149.289 Q2137.35 144.682 2135.36 141.997 Q2133.37 139.289 2129.96 139.289 M2129.96 135.678 Q2135.52 135.678 2138.69 139.289 Q2141.86 142.9 2141.86 149.289 Q2141.86 155.655 2138.69 159.289 Q2135.52 162.9 2129.96 162.9 Q2124.38 162.9 2121.21 159.289 Q2118.07 155.655 2118.07 149.289 Q2118.07 142.9 2121.21 139.289 Q2124.38 135.678 2129.96 135.678 Z" fill="#000000" fill-rule="nonzero" fill-opacity="1"></path><path clip-path="url(#clip230)" d="M2170.47 146.581 L2170.47 162.229 L2166.21 162.229 L2166.21 146.719 Q2166.21 143.039 2164.78 141.21 Q2163.34 139.382 2160.47 139.382 Q2157.02 139.382 2155.03 141.581 Q2153.04 143.78 2153.04 147.576 L2153.04 162.229 L2148.76 162.229 L2148.76 136.303 L2153.04 136.303 L2153.04 140.331 Q2154.57 137.993 2156.63 136.835 Q2158.71 135.678 2161.42 135.678 Q2165.89 135.678 2168.18 138.456 Q2170.47 141.21 2170.47 146.581 Z" fill="#000000" fill-rule="nonzero" fill-opacity="1"></path><path clip-path="url(#clip230)" d="M2189.01 139.289 Q2185.59 139.289 2183.6 141.974 Q2181.61 144.636 2181.61 149.289 Q2181.61 153.942 2183.57 156.627 Q2185.57 159.289 2189.01 159.289 Q2192.42 159.289 2194.41 156.604 Q2196.4 153.918 2196.4 149.289 Q2196.4 144.682 2194.41 141.997 Q2192.42 139.289 2189.01 139.289 M2189.01 135.678 Q2194.57 135.678 2197.74 139.289 Q2200.91 142.9 2200.91 149.289 Q2200.91 155.655 2197.74 159.289 Q2194.57 162.9 2189.01 162.9 Q2183.44 162.9 2180.26 159.289 Q2177.12 155.655 2177.12 149.289 Q2177.12 142.9 2180.26 139.289 Q2183.44 135.678 2189.01 135.678 Z" fill="#000000" fill-rule="nonzero" fill-opacity="1"></path><polyline clip-path="url(#clip230)" style="stroke:#e26f46; stroke-linecap:round; stroke-linejoin:round; stroke-width:4; stroke-opacity:1; fill:none" points="1929.16,196.789 2069.25,196.789 "></polyline>
<path clip-path="url(#clip230)" d="M2092.6 188.143 L2096.86 188.143 L2102.19 208.374 L2107.49 188.143 L2112.51 188.143 L2117.83 208.374 L2123.13 188.143 L2127.39 188.143 L2120.61 214.069 L2115.59 214.069 L2110.01 192.819 L2104.41 214.069 L2099.39 214.069 L2092.6 188.143 Z" fill="#000000" fill-rule="nonzero" fill-opacity="1"></path><path clip-path="url(#clip230)" d="M2133.85 188.143 L2138.11 188.143 L2138.11 214.069 L2133.85 214.069 L2133.85 188.143 M2133.85 178.05 L2138.11 178.05 L2138.11 183.444 L2133.85 183.444 L2133.85 178.05 Z" fill="#000000" fill-rule="nonzero" fill-opacity="1"></path><path clip-path="url(#clip230)" d="M2164.08 192.078 L2164.08 178.05 L2168.34 178.05 L2168.34 214.069 L2164.08 214.069 L2164.08 210.18 Q2162.74 212.495 2160.68 213.629 Q2158.64 214.74 2155.77 214.74 Q2151.07 214.74 2148.11 210.99 Q2145.17 207.24 2145.17 201.129 Q2145.17 195.018 2148.11 191.268 Q2151.07 187.518 2155.77 187.518 Q2158.64 187.518 2160.68 188.652 Q2162.74 189.763 2164.08 192.078 M2149.57 201.129 Q2149.57 205.828 2151.49 208.513 Q2153.44 211.175 2156.82 211.175 Q2160.19 211.175 2162.14 208.513 Q2164.08 205.828 2164.08 201.129 Q2164.08 196.43 2162.14 193.768 Q2160.19 191.083 2156.82 191.083 Q2153.44 191.083 2151.49 193.768 Q2149.57 196.43 2149.57 201.129 Z" fill="#000000" fill-rule="nonzero" fill-opacity="1"></path><path clip-path="url(#clip230)" d="M2199.29 200.041 L2199.29 202.124 L2179.71 202.124 Q2179.99 206.522 2182.35 208.837 Q2184.73 211.129 2188.97 211.129 Q2191.42 211.129 2193.71 210.527 Q2196.03 209.925 2198.3 208.721 L2198.3 212.749 Q2196 213.721 2193.6 214.231 Q2191.19 214.74 2188.71 214.74 Q2182.51 214.74 2178.88 211.129 Q2175.26 207.518 2175.26 201.36 Q2175.26 194.995 2178.69 191.268 Q2182.14 187.518 2187.97 187.518 Q2193.2 187.518 2196.24 190.897 Q2199.29 194.254 2199.29 200.041 M2195.03 198.791 Q2194.99 195.296 2193.07 193.212 Q2191.17 191.129 2188.02 191.129 Q2184.45 191.129 2182.3 193.143 Q2180.17 195.157 2179.85 198.814 L2195.03 198.791 Z" fill="#000000" fill-rule="nonzero" fill-opacity="1"></path><path clip-path="url(#clip230)" d="M2227.83 198.421 L2227.83 214.069 L2223.57 214.069 L2223.57 198.559 Q2223.57 194.879 2222.14 193.05 Q2220.7 191.222 2217.83 191.222 Q2214.38 191.222 2212.39 193.421 Q2210.4 195.62 2210.4 199.416 L2210.4 214.069 L2206.12 214.069 L2206.12 188.143 L2210.4 188.143 L2210.4 192.171 Q2211.93 189.833 2213.99 188.675 Q2216.07 187.518 2218.78 187.518 Q2223.25 187.518 2225.54 190.296 Q2227.83 193.05 2227.83 198.421 Z" fill="#000000" fill-rule="nonzero" fill-opacity="1"></path><path clip-path="url(#clip230)" d="M2240.96 210.133 L2257.28 210.133 L2257.28 214.069 L2235.33 214.069 L2235.33 210.133 Q2238 207.379 2242.58 202.749 Q2247.19 198.096 2248.37 196.754 Q2250.61 194.231 2251.49 192.495 Q2252.39 190.735 2252.39 189.046 Q2252.39 186.291 2250.45 184.555 Q2248.53 182.819 2245.43 182.819 Q2243.23 182.819 2240.77 183.583 Q2238.34 184.347 2235.56 185.897 L2235.56 181.175 Q2238.39 180.041 2240.84 179.462 Q2243.3 178.884 2245.33 178.884 Q2250.7 178.884 2253.9 181.569 Q2257.09 184.254 2257.09 188.745 Q2257.09 190.874 2256.28 192.796 Q2255.5 194.694 2253.39 197.286 Q2252.81 197.958 2249.71 201.175 Q2246.61 204.37 2240.96 210.133 Z" fill="#000000" fill-rule="nonzero" fill-opacity="1"></path><polyline clip-path="url(#clip230)" style="stroke:#3da44d; stroke-linecap:round; stroke-linejoin:round; stroke-width:4; stroke-opacity:1; fill:none" points="1929.16,248.629 2069.25,248.629 "></polyline>
<path clip-path="url(#clip230)" d="M2092.6 239.983 L2096.86 239.983 L2102.19 260.214 L2107.49 239.983 L2112.51 239.983 L2117.83 260.214 L2123.13 239.983 L2127.39 239.983 L2120.61 265.909 L2115.59 265.909 L2110.01 244.659 L2104.41 265.909 L2099.39 265.909 L2092.6 239.983 Z" fill="#000000" fill-rule="nonzero" fill-opacity="1"></path><path clip-path="url(#clip230)" d="M2133.85 239.983 L2138.11 239.983 L2138.11 265.909 L2133.85 265.909 L2133.85 239.983 M2133.85 229.89 L2138.11 229.89 L2138.11 235.284 L2133.85 235.284 L2133.85 229.89 Z" fill="#000000" fill-rule="nonzero" fill-opacity="1"></path><path clip-path="url(#clip230)" d="M2164.08 243.918 L2164.08 229.89 L2168.34 229.89 L2168.34 265.909 L2164.08 265.909 L2164.08 262.02 Q2162.74 264.335 2160.68 265.469 Q2158.64 266.58 2155.77 266.58 Q2151.07 266.58 2148.11 262.83 Q2145.17 259.08 2145.17 252.969 Q2145.17 246.858 2148.11 243.108 Q2151.07 239.358 2155.77 239.358 Q2158.64 239.358 2160.68 240.492 Q2162.74 241.603 2164.08 243.918 M2149.57 252.969 Q2149.57 257.668 2151.49 260.353 Q2153.44 263.015 2156.82 263.015 Q2160.19 263.015 2162.14 260.353 Q2164.08 257.668 2164.08 252.969 Q2164.08 248.27 2162.14 245.608 Q2160.19 242.923 2156.82 242.923 Q2153.44 242.923 2151.49 245.608 Q2149.57 248.27 2149.57 252.969 Z" fill="#000000" fill-rule="nonzero" fill-opacity="1"></path><path clip-path="url(#clip230)" d="M2199.29 251.881 L2199.29 253.964 L2179.71 253.964 Q2179.99 258.362 2182.35 260.677 Q2184.73 262.969 2188.97 262.969 Q2191.42 262.969 2193.71 262.367 Q2196.03 261.765 2198.3 260.561 L2198.3 264.589 Q2196 265.561 2193.6 266.071 Q2191.19 266.58 2188.71 266.58 Q2182.51 266.58 2178.88 262.969 Q2175.26 259.358 2175.26 253.2 Q2175.26 246.835 2178.69 243.108 Q2182.14 239.358 2187.97 239.358 Q2193.2 239.358 2196.24 242.737 Q2199.29 246.094 2199.29 251.881 M2195.03 250.631 Q2194.99 247.136 2193.07 245.052 Q2191.17 242.969 2188.02 242.969 Q2184.45 242.969 2182.3 244.983 Q2180.17 246.997 2179.85 250.654 L2195.03 250.631 Z" fill="#000000" fill-rule="nonzero" fill-opacity="1"></path><path clip-path="url(#clip230)" d="M2227.83 250.261 L2227.83 265.909 L2223.57 265.909 L2223.57 250.399 Q2223.57 246.719 2222.14 244.89 Q2220.7 243.062 2217.83 243.062 Q2214.38 243.062 2212.39 245.261 Q2210.4 247.46 2210.4 251.256 L2210.4 265.909 L2206.12 265.909 L2206.12 239.983 L2210.4 239.983 L2210.4 244.011 Q2211.93 241.673 2213.99 240.515 Q2216.07 239.358 2218.78 239.358 Q2223.25 239.358 2225.54 242.136 Q2227.83 244.89 2227.83 250.261 Z" fill="#000000" fill-rule="nonzero" fill-opacity="1"></path><path clip-path="url(#clip230)" d="M2249.78 235.423 L2237.97 253.872 L2249.78 253.872 L2249.78 235.423 M2248.55 231.349 L2254.43 231.349 L2254.43 253.872 L2259.36 253.872 L2259.36 257.761 L2254.43 257.761 L2254.43 265.909 L2249.78 265.909 L2249.78 257.761 L2234.18 257.761 L2234.18 253.247 L2248.55 231.349 Z" fill="#000000" fill-rule="nonzero" fill-opacity="1"></path></svg>